<svg width="375" height="132" viewBox="0 0 375 132" fill="none" xmlns="http://www.w3.org/2000/svg">
<mask id="mask0_1_2766" style="mask-type:luminance" maskUnits="userSpaceOnUse" x="0" y="0" width="375" height="132">
<rect y="0.156006" width="374.788" height="131.844" fill="white"/>
</mask>
<g mask="url(#mask0_1_2766)">
<mask id="mask1_1_2766" style="mask-type:luminance" maskUnits="userSpaceOnUse" x="-1" y="17" width="376" height="129">
<rect x="-0.0369873" y="17.6121" width="374.825" height="128.388" fill="white"/>
</mask>
<g mask="url(#mask1_1_2766)">
<path fill-rule="evenodd" clip-rule="evenodd" d="M283.074 133.412C287.337 126.175 291.355 116.997 287.231 113.958C275.69 105.385 275.69 133.741 263.82 119.564C257.556 112.31 244.037 72.4131 229.859 83.9541C217.659 93.8461 241.399 114.948 231.837 123.854C223.264 132.097 217.659 105.06 210.075 106.379C201.175 107.698 201.175 128.471 191.281 125.173C179.74 121.546 196.886 95.8281 183.368 92.8601C168.201 89.2331 167.868 114.951 159.628 120.227C157.979 118.579 157.65 116.6 156.99 113.962C155.012 107.038 148.747 72.4171 136.877 78.6821C122.699 86.2651 139.515 108.682 138.525 118.582C137.206 133.419 117.753 104.734 113.466 104.404C100.866 103.545 117.623 125.827 123.752 133.42L283.074 133.412Z" fill="#90CCD6"/>
<path fill-rule="evenodd" clip-rule="evenodd" d="M18.559 23.1401C13.927 23.1531 9.07196 24.0851 5.44598 27.1551C2.55371 29.7637 0.71228 33.3378 0.266968 37.2071C-0.0309448 39.3587 -0.0786133 41.5376 0.125 43.7001C0.268372 46.1164 0.903687 48.478 1.992 50.6401C4.33997 54.7652 8.23193 57.7872 12.81 59.0401C17.0186 60.3672 21.5466 60.2755 25.698 58.7791C28.6678 57.5871 31.222 55.5487 33.043 52.9171C36.668 47.5356 37.6608 40.8018 35.743 34.6031C34.8479 31.6121 33.1336 28.9314 30.794 26.8641C28.1767 24.6864 24.9382 23.3914 21.541 23.1641C20.5492 23.0858 19.5532 23.0754 18.5601 23.1331C18.16 23.1551 18.16 23.7731 18.56 23.7511C22.0477 23.4657 25.5396 24.2503 28.57 26.0001C31.1156 27.6045 33.1273 29.9287 34.35 32.6781C36.8284 38.3752 36.6341 44.8812 33.82 50.4201C32.4641 53.1369 30.3856 55.4274 27.813 57.0401C24.5043 58.9336 20.6686 59.6971 16.887 59.2151C12.2098 58.8247 7.84052 56.7246 4.61401 53.3161C3.01941 51.5439 1.87329 49.415 1.27197 47.1081C0.76123 44.9396 0.54364 42.7125 0.625 40.4861C0.541443 36.6068 1.70093 32.8024 3.93396 29.6291C6.51801 26.2701 10.534 24.5721 14.64 24.0081C15.9396 23.8378 17.2492 23.7543 18.56 23.7581C18.7307 23.7581 18.869 23.6198 18.869 23.4491C18.869 23.2785 18.7307 23.1401 18.56 23.1401" fill="#003849"/>
<path fill-rule="evenodd" clip-rule="evenodd" d="M7.05408 26.9301C9.10608 28.1431 11.7401 28.7231 13.4311 30.4801C15.475 32.6031 12.8981 34.9341 11.2551 36.2801C10.3149 36.9488 9.51794 37.7988 8.91107 38.7801C8.35876 39.8786 8.23065 41.1421 8.55109 42.3291C8.88348 43.3581 9.50903 44.2676 10.3511 44.9461C11.2156 45.5794 11.9568 46.3657 12.5381 47.2661C13.2841 48.7431 12.548 50.5111 11.6381 51.7351C10.4433 53.1929 8.97034 54.3983 7.30505 55.2811C7.17065 55.3729 7.13013 55.5529 7.21222 55.6935C7.29431 55.834 7.47113 55.8871 7.61707 55.8151C10.178 54.3151 13.282 52.0431 13.4551 48.7801C13.5941 46.1621 11.04 45.2091 9.72906 43.3801C8.94861 42.2335 8.77625 40.7783 9.26709 39.4811C9.83582 38.3448 10.6905 37.376 11.7471 36.6701C13.3951 35.3251 15.7911 33.1131 14.436 30.7771C13.66 29.692 12.5934 28.848 11.3591 28.3421C10.0411 27.6721 8.64508 27.1501 7.37006 26.3961C7.22382 26.3213 7.04462 26.3736 6.96155 26.5154C6.87848 26.6571 6.92035 26.839 7.05707 26.9301" fill="#003849"/>
<path fill-rule="evenodd" clip-rule="evenodd" d="M19.2069 23.7451C18.4509 26.0451 17.9389 28.8681 18.8619 31.1921C19.7399 33.4031 21.9169 34.1051 24.1059 34.2511C25.002 34.2225 25.897 34.3335 26.7589 34.5801C27.6879 34.9561 27.7009 35.9441 27.5499 36.8081C27.2619 38.4611 26.3369 39.8291 25.7879 41.3871C25.2735 42.9061 25.5189 44.5798 26.4479 45.8871C28.3049 48.7601 31.8189 48.5711 34.8259 48.9131C35.2209 48.9581 35.2169 48.3391 34.8259 48.2951C32.1769 47.9951 28.8729 48.2281 27.1259 45.7901C26.5728 45.0613 26.2234 44.1985 26.1139 43.2901C26.0869 42.4909 26.2587 41.6975 26.614 40.9811C27.3245 39.6515 27.8523 38.232 28.1829 36.7611C28.3894 35.9612 28.2112 35.1108 27.7009 34.4611C27.1433 34.0004 26.4442 33.7455 25.7209 33.7391C23.7589 33.5321 21.4579 33.7291 20.0569 32.0391C18.2809 29.8931 19.0189 26.3091 19.8079 23.9131C19.9329 23.5341 19.3359 23.3721 19.2079 23.7491" fill="#003849"/>
<path fill-rule="evenodd" clip-rule="evenodd" d="M15.374 59.1641C17.1711 57.2306 18.0529 54.6193 17.796 51.9921C17.4346 50.0573 16.8715 48.1656 16.116 46.3481C15.45 44.7453 15.2423 42.9891 15.516 41.2751C15.8799 39.8861 17.684 38.6111 19.066 39.5241C20.232 40.2951 20.443 42.1871 20.5959 43.4441C20.796 45.0591 20.796 46.6891 20.9839 48.3061C21.0677 48.8695 21.1816 49.428 21.325 49.9791C21.534 50.9211 21.387 51.9201 21.6249 52.8621C21.7469 53.3301 22.059 54.0621 22.597 54.1811C23.074 54.2811 23.4059 53.8451 23.619 53.4871C23.9912 52.7681 24.3169 52.0259 24.5939 51.2652C24.7334 50.9146 24.9041 50.5772 25.1039 50.2571C25.3699 49.8571 25.5829 49.8091 26.08 49.7841C28.801 49.6511 29.71 52.7001 30.549 54.7411C30.6979 55.1041 31.2969 54.9411 31.149 54.5771C30.417 52.7961 29.694 50.3241 27.778 49.4621C26.9608 49.0753 26.024 49.0264 25.171 49.3261C24.6755 49.6972 24.3104 50.2156 24.128 50.8071C23.8279 51.4871 23.585 52.1961 23.2549 52.8631C23.028 53.3221 22.812 53.8631 22.447 53.2341C22.0925 52.2886 21.9349 51.2807 21.9839 50.2721C21.92 49.6721 21.704 49.1011 21.624 48.4971C21.4059 46.8411 21.4189 45.1621 21.2239 43.5041C21.059 42.1111 20.839 40.4161 19.824 39.3541C18.7018 38.382 17.0274 38.4113 15.9399 39.4221C14.649 40.5081 14.64 42.3921 14.877 43.9221C15.2936 45.8117 15.8693 47.6626 16.598 49.4551C17.1182 50.9099 17.3174 52.4601 17.1819 53.9991C16.9321 55.7648 16.15 57.4123 14.9399 58.7221C14.68 59.0221 15.115 59.4601 15.378 59.1601" fill="#003849"/>
<path fill-rule="evenodd" clip-rule="evenodd" d="M5.54291 30.1611C5.87891 30.4981 6.18591 30.8611 6.5509 31.1701C6.61035 31.2262 6.68823 31.2586 6.76996 31.2611C6.85193 31.26 6.93036 31.2274 6.98895 31.1701C7.10754 31.0482 7.10754 30.854 6.98895 30.7321C6.6239 30.4261 6.31592 30.0601 5.98096 29.7231C5.85999 29.6025 5.66412 29.6028 5.54352 29.7237C5.42285 29.8446 5.42303 30.0404 5.54395 30.1611" fill="#003849"/>
<path fill-rule="evenodd" clip-rule="evenodd" d="M10.9 33.3171L10.207 34.0101C10.1497 34.0687 10.1172 34.1471 10.116 34.2291C10.116 34.3997 10.2543 34.5381 10.425 34.5381C10.5065 34.5363 10.5844 34.5038 10.643 34.4471L11.337 33.7541C11.3939 33.6953 11.4261 33.6169 11.427 33.5351C11.4272 33.453 11.3948 33.3743 11.3368 33.3163C11.2788 33.2583 11.2 33.2258 11.118 33.2261C11.0361 33.2277 10.9579 33.2602 10.899 33.3171" fill="#003849"/>
<path fill-rule="evenodd" clip-rule="evenodd" d="M3.90319 37.0354C4.03015 37.1611 4.15637 37.2877 4.28192 37.4154C4.34082 37.4725 4.4194 37.5048 4.50135 37.5056C4.54275 37.5075 4.58384 37.4986 4.6206 37.4795C4.65888 37.4669 4.69331 37.4448 4.72083 37.4154C4.7788 37.357 4.81152 37.2781 4.81201 37.1958C4.81048 37.1137 4.77795 37.0353 4.72083 36.9763L4.34204 36.5963C4.28302 36.5395 4.20456 36.5072 4.12262 36.5061C4.08128 36.5042 4.04018 36.5132 4.00343 36.5322C3.9652 36.5449 3.93077 36.567 3.90319 36.5963C3.84528 36.6548 3.81256 36.7336 3.81201 36.8159C3.8136 36.898 3.8462 36.9764 3.90319 37.0354Z" fill="#003849"/>
<path fill-rule="evenodd" clip-rule="evenodd" d="M5.68304 43.2151L5.65002 43.2591L5.698 43.1971C5.53802 43.4042 5.35217 43.5901 5.14502 43.7501L5.20404 43.7051L5.16003 43.7391C5.12494 43.7582 5.09503 43.7857 5.073 43.8191C5.04626 43.849 5.02734 43.8851 5.01801 43.9241C4.99677 44.0044 5.00787 44.0899 5.04901 44.1621C5.08984 44.2317 5.15619 44.2826 5.23401 44.3041C5.31421 44.3273 5.40045 44.3161 5.47205 44.2731C5.75897 44.0688 6.00977 43.818 6.21399 43.5311C6.2558 43.4591 6.26697 43.3734 6.245 43.2931C6.22363 43.2147 6.17322 43.1475 6.104 43.1051C6.03198 43.0635 5.94629 43.0524 5.86603 43.0741L5.79199 43.1051C5.74628 43.1321 5.70807 43.1703 5.68103 43.2161" fill="#003849"/>
<path fill-rule="evenodd" clip-rule="evenodd" d="M6.58002 51.061H8.47205C8.64227 51.0601 8.77997 50.8365 8.77997 50.561C8.77997 50.2856 8.64227 50.062 8.47205 50.061H6.58002C6.40979 50.062 6.27209 50.2856 6.27209 50.561C6.27209 50.8365 6.40979 51.0601 6.58002 51.061Z" fill="#003849"/>
<path fill-rule="evenodd" clip-rule="evenodd" d="M17.769 43.843C18.0466 43.5325 18.3414 43.2377 18.652 42.96C18.7101 42.9019 18.7428 42.8232 18.743 42.741C18.7422 42.659 18.7096 42.5804 18.652 42.522C18.5938 42.4641 18.5151 42.4314 18.433 42.431C18.3518 42.4357 18.2746 42.4678 18.214 42.522C17.9037 42.7999 17.6089 43.0947 17.331 43.405C17.21 43.5257 17.2098 43.7216 17.3305 43.8425C17.4512 43.9635 17.647 43.9637 17.768 43.843" fill="#003849"/>
<path fill-rule="evenodd" clip-rule="evenodd" d="M18.0261 48.5561C18.4175 48.7417 18.8215 48.8994 19.235 49.0281C19.3995 49.0723 19.5689 48.976 19.6151 48.8121C19.6564 48.648 19.5612 48.4805 19.3991 48.4321C19.2131 48.3701 19.0261 48.3071 18.8421 48.2391L18.7111 48.1891L18.6301 48.1561C18.6121 48.1491 18.5471 48.1271 18.6231 48.1561C18.5259 48.1178 18.431 48.0737 18.3391 48.0241C18.1917 47.9379 18.0023 47.9876 17.9161 48.1351C17.8299 48.2825 17.8796 48.4719 18.0271 48.5581" fill="#003849"/>
<path fill-rule="evenodd" clip-rule="evenodd" d="M19.4287 55.6361C19.2941 55.9051 19.1837 56.1851 19.0492 56.4551C19.0093 56.5278 18.9982 56.6127 19.0181 56.6931C19.0403 56.7706 19.0913 56.8368 19.1606 56.8781C19.2332 56.9219 19.3205 56.9345 19.4026 56.9131C19.4812 56.8927 19.5481 56.8415 19.5883 56.7711C19.7228 56.5011 19.8332 56.2211 19.9678 55.9521C20.0075 55.8794 20.0186 55.7946 19.9989 55.7141C19.9766 55.6368 19.9256 55.5707 19.8563 55.5291C19.784 55.4876 19.698 55.4764 19.6174 55.4981C19.5392 55.5193 19.4725 55.5703 19.4317 55.6401" fill="#003849"/>
<path fill-rule="evenodd" clip-rule="evenodd" d="M25.6641 55.4391C25.998 55.5591 26.3461 55.6372 26.673 55.7775C26.7533 55.801 26.8391 55.7891 26.911 55.7443C26.9819 55.7001 27.0334 55.6275 27.0543 55.5425C27.0751 55.4575 27.0635 55.3672 27.022 55.2913C26.978 55.2199 26.9128 55.1663 26.837 55.1392C26.51 54.999 26.162 54.9251 25.829 54.8008C25.6644 54.7535 25.4947 54.8565 25.4481 55.0321C25.4072 55.2078 25.5023 55.3868 25.6641 55.4391" fill="#003849"/>
<path fill-rule="evenodd" clip-rule="evenodd" d="M32.9051 43.4681C32.4815 43.9513 32.1549 44.5115 31.9431 45.1181C31.8989 45.2826 31.9952 45.4519 32.1591 45.4981C32.3234 45.5388 32.4907 45.4433 32.5391 45.2811C32.5611 45.2151 32.5851 45.1481 32.61 45.0811L32.6301 45.0321C32.662 44.9541 32.6141 45.0661 32.6301 45.0221L32.6731 44.9271C32.7331 44.7971 32.8011 44.6711 32.873 44.5481C32.9451 44.4251 33.0191 44.3151 33.0991 44.2031L33.1601 44.1201L33.183 44.0901C33.1611 44.1191 33.1951 44.0751 33.199 44.0711C33.2441 44.0141 33.2901 43.9581 33.3371 43.9031C33.458 43.7824 33.4583 43.5866 33.3376 43.4656C33.2169 43.3447 33.021 43.3444 32.9001 43.4651" fill="#003849"/>
<path fill-rule="evenodd" clip-rule="evenodd" d="M29.889 39.533C30.177 39.6516 30.4717 39.7479 30.7711 39.8212C30.9367 39.873 31.1077 39.7614 31.153 39.5718C31.1983 39.3823 31.1007 39.1867 30.9351 39.1349C30.6357 39.0616 30.3411 38.9653 30.053 38.8467C29.9728 38.8212 29.8869 38.834 29.8151 38.8821C29.746 38.9297 29.6953 39.0052 29.673 39.0938C29.6514 39.1856 29.6625 39.2835 29.704 39.366C29.7481 39.4422 29.8132 39.4994 29.889 39.5284" fill="#003849"/>
<path fill-rule="evenodd" clip-rule="evenodd" d="M30.3425 31.1841C30.2104 31.577 30.1134 31.9782 30.0525 32.3841C30.0303 32.4647 30.0435 32.5495 30.0893 32.6221C30.1614 32.7297 30.3007 32.7891 30.4427 32.7729C30.5848 32.7568 30.7018 32.6682 30.7396 32.5481C30.8009 32.1423 30.8979 31.7411 31.0297 31.3481C31.0805 31.1837 30.9697 31.0143 30.7811 30.9681C30.5922 30.9268 30.3994 31.022 30.3437 31.1841" fill="#003849"/>
<path fill-rule="evenodd" clip-rule="evenodd" d="M23.195 28.882C23.5598 29.1158 23.9389 29.3265 24.33 29.513C24.4774 29.5992 24.6668 29.5495 24.753 29.4021C24.8391 29.2546 24.7894 29.0652 24.642 28.979C24.2507 28.7929 23.8716 28.5822 23.507 28.348C23.3593 28.2635 23.1711 28.3129 23.084 28.459C23.0022 28.6071 23.0511 28.7932 23.195 28.882Z" fill="#003849"/>
<path fill-rule="evenodd" clip-rule="evenodd" d="M63.437 88.3141C61.744 86.4659 59.3698 85.3891 56.864 85.3331C54.3298 85.3318 52.0378 86.8383 51.0339 89.1651C48.8339 93.7141 49.8289 100.29 53.923 103.465C57.8069 106.48 63.4399 106.11 67.798 104.423C70.3022 103.476 72.4171 101.718 73.8049 99.4281C75.2421 97.1504 75.8562 94.4493 75.5449 91.7741C75.0988 88.9839 73.0923 86.6967 70.384 85.8911C67.7449 85.1111 64.5429 85.8441 63.0739 88.3121C63.002 88.4581 63.0551 88.6349 63.1956 88.717C63.3361 88.7991 63.5162 88.7585 63.608 88.6241C64.879 86.4891 67.608 85.8391 69.908 86.4031C72.2499 86.9812 74.1028 88.7693 74.764 91.0891C75.2916 93.5044 74.9369 96.0288 73.764 98.2051C72.6861 100.427 70.9088 102.234 68.705 103.348C64.8829 105.275 59.6049 105.891 55.705 103.873C51.33 101.611 49.7809 96.0731 50.861 91.4971C51.489 88.8361 53.174 86.3201 56.08 85.9871C58.6898 85.7806 61.247 86.8009 62.9979 88.7471C63.267 89.0411 63.7029 88.6031 63.436 88.3091" fill="#003849"/>
<path fill-rule="evenodd" clip-rule="evenodd" d="M63.535 88.1671C63.711 85.3311 63.811 80.8611 67.269 80.0561C67.656 79.9651 67.493 79.3701 67.105 79.4561C63.316 80.3381 63.113 85.0261 62.917 88.1631C62.892 88.5631 63.51 88.5631 63.535 88.1631" fill="#003849"/>
<path fill-rule="evenodd" clip-rule="evenodd" d="M63.886 84.1061C63.9536 83.2511 63.6771 82.4045 63.118 81.7541C62.6476 81.0258 61.9205 80.5011 61.081 80.2841C60.6595 80.2379 60.2374 80.3644 59.9108 80.6348C59.5842 80.9053 59.3812 81.2964 59.348 81.7191C59.3557 82.6695 59.9001 83.5338 60.754 83.9511C61.6129 84.5862 62.7208 84.7796 63.744 84.4731C63.8902 84.386 63.9396 84.1978 63.855 84.0501C63.7662 83.9062 63.5801 83.8574 63.432 83.9391C63.3107 83.9806 63.1848 84.0075 63.057 84.0191C62.89 84.0286 62.7224 84.0206 62.557 83.9951C62.152 83.9274 61.7604 83.7954 61.397 83.6041C60.786 83.2871 60.052 82.7321 59.963 82.0361C59.9413 81.7172 60.0458 81.4026 60.254 81.1601C60.3342 81.0606 60.4371 80.9817 60.554 80.9301C60.6589 80.8851 60.7736 80.8679 60.887 80.8801C60.904 80.8801 60.987 80.8891 60.965 80.8861L61.045 80.9021C61.1228 80.9205 61.1993 80.9439 61.274 80.9721C61.4137 81.0321 61.5475 81.1048 61.674 81.1891C61.9746 81.394 62.2441 81.6412 62.474 81.9231C62.7386 82.2366 62.9557 82.5874 63.118 82.9641C63.1899 83.1408 63.2449 83.324 63.282 83.5111C63.2967 83.5855 63.3041 83.6612 63.304 83.7371C63.304 83.7791 63.304 83.8201 63.304 83.8611C63.304 83.8761 63.304 83.8911 63.304 83.9071C63.297 84.0071 63.315 83.8491 63.304 83.9431C63.2638 84.107 63.3586 84.2738 63.52 84.3231C63.6844 84.3667 63.8534 84.2706 63.9 84.1071" fill="#003849"/>
<path fill-rule="evenodd" clip-rule="evenodd" d="M60.809 82.1101C61.5615 82.9429 62.3994 83.6944 63.309 84.3521C63.4564 84.4382 63.6458 84.3885 63.732 84.2411C63.8181 84.0936 63.7684 83.9043 63.621 83.8181C62.7564 83.1882 61.9606 82.4689 61.2469 81.6721C61.1246 81.5598 60.9355 81.5638 60.8181 81.6813C60.7007 81.7987 60.6967 81.9878 60.809 82.1101" fill="#003849"/>
<path fill-rule="evenodd" clip-rule="evenodd" d="M55.949 87.8691C55.0982 88.1499 54.3614 88.699 53.849 89.4341C53.3757 90.1868 53.0825 91.0385 52.9921 91.9231C52.9534 92.0868 53.0476 92.2526 53.208 92.3031C53.3727 92.3473 53.5424 92.2511 53.5891 92.0871C53.6678 91.2874 53.9214 90.5148 54.332 89.8241C54.7581 89.1846 55.3856 88.7058 56.1151 88.4641C56.488 88.3331 56.328 87.7351 55.9511 87.8641" fill="#003849"/>
<path fill-rule="evenodd" clip-rule="evenodd" d="M245.793 104.398C247.898 110.617 250.026 116.829 252.177 123.033C254.151 128.733 256.135 134.433 258.185 140.105C258.871 142.005 259.552 143.905 260.301 145.778C260.329 145.869 260.396 145.942 260.484 145.978C260.572 146.014 260.672 146.008 260.755 145.963C264.289 144.378 267.976 143.122 271.619 141.816C276.262 140.152 280.912 138.502 285.505 136.702C287.995 135.726 290.469 134.702 292.905 133.602C293.026 133.531 293.084 133.388 293.047 133.253C289.785 123.187 286.495 113.143 282.579 103.309C281.318 100.144 280.018 96.994 278.704 93.852C278.655 93.6902 278.488 93.5952 278.324 93.636C268.586 96.464 258.955 99.636 249.356 102.902C248.243 103.28 247.133 103.671 246.012 104.022C245.634 104.141 245.795 104.738 246.177 104.622C248.8 103.799 251.39 102.863 253.994 101.985C258.845 100.351 263.711 98.7647 268.594 97.226C271.883 96.196 275.183 95.1994 278.494 94.236L278.113 94.02C282.154 103.683 285.886 113.429 289.177 123.374C290.284 126.719 291.377 130.068 292.456 133.422L292.598 133.073C283.887 137.037 274.748 139.942 265.798 143.291C263.998 143.964 262.205 144.653 260.453 145.438L260.908 145.623C259.279 141.549 257.863 137.384 256.408 133.248C254.2 126.985 252.023 120.712 249.876 114.429C248.712 111.036 247.555 107.64 246.404 104.243C246.277 103.868 245.679 104.029 245.804 104.407" fill="#003849"/>
<path fill-rule="evenodd" clip-rule="evenodd" d="M251.027 102.636C252.664 107.499 254.316 112.356 255.983 117.209C258.05 123.26 260.123 129.31 262.202 135.357C263.135 138.062 264.069 140.767 265.002 143.471C265.132 143.845 265.729 143.684 265.602 143.307C263.77 138.014 261.948 132.717 260.135 127.418C258.104 121.493 256.079 115.567 254.059 109.64C253.246 107.252 252.437 104.863 251.63 102.473C251.503 102.098 250.906 102.258 251.03 102.637" fill="#003849"/>
<path fill-rule="evenodd" clip-rule="evenodd" d="M267.723 109.31C264.286 110.51 263.257 110.745 261.279 112.662C260.228 113.713 260.228 115.444 261.959 115.568C263.875 115.692 266.596 114.455 268.389 113.775C270.305 113.033 272.16 112.168 273.953 111.302C275.004 110.746 276.24 110.189 276.179 108.891C276.055 106.665 272.222 107.407 267.724 109.31" fill="#003849"/>
<path fill-rule="evenodd" clip-rule="evenodd" d="M264.536 122.785C269.373 121.168 274.127 119.319 278.879 117.468C279.245 117.325 279.086 116.727 278.714 116.868C273.963 118.719 269.209 120.568 264.371 122.185C263.996 122.311 264.156 122.908 264.536 122.785Z" fill="#003849"/>
<path fill-rule="evenodd" clip-rule="evenodd" d="M263.231 120.029C268.068 118.412 272.822 116.563 277.574 114.712C277.94 114.569 277.781 113.971 277.409 114.112C272.658 115.963 267.904 117.812 263.066 119.429C262.691 119.555 262.851 120.152 263.231 120.029Z" fill="#003849"/>
<path fill-rule="evenodd" clip-rule="evenodd" d="M283.152 38.6821C280.711 41.2601 280.527 45.5191 282.026 48.6151C284.166 52.471 288.761 54.2402 292.935 52.8151C296.568 51.3756 299.126 48.0677 299.605 44.1891C299.809 40.312 297.518 36.7366 293.91 35.3021C292.141 34.523 290.16 34.3665 288.291 34.8581C286.168 35.5189 284.336 36.889 283.103 38.7391C282.871 39.0621 283.403 39.3721 283.637 39.0511C285.72 36.1511 289.068 34.4881 292.621 35.4941C296.046 36.4197 298.569 39.3276 299.003 42.8491C299.093 46.3401 297.304 49.6114 294.317 51.4201C292.486 52.6343 290.226 53.0172 288.097 52.4741C286.146 52.0165 284.407 50.9131 283.162 49.3431C281.126 46.4521 281.09 41.7601 283.586 39.1231C283.86 38.8341 283.423 38.3961 283.149 38.6851" fill="#003849"/>
<path fill-rule="evenodd" clip-rule="evenodd" d="M285.365 40.3711C283.28 42.5181 283.575 46.9631 285.875 48.8011C287.975 50.4011 290.504 51.0371 292.946 49.6351C296.518 47.5911 298.356 42.6481 294.718 39.2941C293.427 37.9849 291.606 37.3427 289.779 37.5531C287.953 37.7634 286.325 38.8028 285.365 40.3711" fill="#5596A5"/>
<path fill-rule="evenodd" clip-rule="evenodd" d="M286.752 46.322C287.038 45.122 287.325 43.9193 287.612 42.714C287.705 42.327 287.112 42.163 287.012 42.55C286.725 43.75 286.439 44.9527 286.152 46.158C286.06 46.545 286.652 46.71 286.752 46.322Z" fill="#003849"/>
<path fill-rule="evenodd" clip-rule="evenodd" d="M289.613 47.713C290.25 45.043 290.927 42.381 291.564 39.713C291.657 39.326 291.064 39.162 290.964 39.549C290.327 42.22 289.65 44.881 289.013 47.549C288.921 47.936 289.513 48.1 289.613 47.713Z" fill="#003849"/>
<path fill-rule="evenodd" clip-rule="evenodd" d="M293.192 45.1531C293.365 44.4261 293.497 43.6891 293.712 42.9721C293.757 42.8064 293.66 42.6354 293.494 42.5901C293.328 42.5448 293.157 42.6424 293.112 42.8081C292.897 43.5251 292.765 44.2621 292.592 44.9891C292.547 45.1547 292.644 45.3258 292.81 45.371C292.976 45.4163 293.147 45.3187 293.192 45.1531Z" fill="#003849"/>
<path fill-rule="evenodd" clip-rule="evenodd" d="M297.481 49.0351C300.374 50.1421 303.303 51.1621 306.242 52.1351C307.838 52.7806 309.541 53.1199 311.262 53.1351C312.162 53.0851 314.104 52.7931 314.408 51.7491C314.808 50.3751 312.524 49.4261 311.615 49.0181C309.397 48.0746 307.106 47.3127 304.764 46.7401C302.897 46.1984 300.999 45.7696 299.08 45.4561C298.691 45.4021 298.523 45.9981 298.915 46.0561C300.351 46.2887 301.773 46.5958 303.177 46.9761C305.375 47.4994 307.544 48.1417 309.672 48.9001C310.602 49.2247 311.504 49.6216 312.372 50.0871C312.841 50.3481 313.572 50.7221 313.779 51.2621C314.1 52.0911 312.219 52.4001 311.671 52.4801C309.993 52.5874 308.312 52.3057 306.761 51.6571C303.701 50.6501 300.652 49.5881 297.644 48.4361C297.272 48.2941 297.111 48.8911 297.479 49.0361" fill="#003849"/>
<path fill-rule="evenodd" clip-rule="evenodd" d="M109.033 107.938C106.333 99.752 94.9991 99.261 88.55 102.913C87.7669 103.351 87.035 103.876 86.368 104.476C86.0327 104.779 85.7198 105.106 85.4321 105.455C85.2 105.725 85.0859 106.076 85.1151 106.431C85.045 108.184 84.989 109.937 84.936 111.69C84.7934 116.42 84.6744 121.15 84.579 125.881C84.497 129.907 84.361 133.946 84.45 137.973C84.4523 138.083 84.512 138.183 84.6071 138.238C84.7023 138.293 84.8192 138.293 84.915 138.24C90.558 135.533 97.497 133.171 103.715 135.24C105.538 135.857 107.203 136.866 108.593 138.196C108.693 138.294 108.846 138.313 108.968 138.244C111.852 135.983 115.382 134.703 119.045 134.589C122.182 134.662 125.265 135.413 128.085 136.789C129.668 137.505 131.199 138.328 132.715 139.175C132.811 139.229 132.928 139.228 133.023 139.174C133.119 139.119 133.178 139.018 133.18 138.908V105.134C133.18 104.766 133.28 104.305 133.027 104.021C132.562 103.599 132.04 103.245 131.477 102.969C127.456 100.662 122.738 99.884 118.189 100.778C114.209 101.526 109.64 103.736 108.433 107.939C108.388 108.105 108.485 108.276 108.651 108.321C108.817 108.366 108.988 108.269 109.033 108.103C109.903 105.074 112.775 103.134 115.601 102.118C119.15 100.871 122.989 100.702 126.633 101.634C128.837 102.191 130.907 103.184 132.72 104.556L132.567 104.289V138.914L133.032 138.647C127.398 135.496 121.067 132.671 114.532 134.662C112.416 135.338 110.431 136.37 108.662 137.714L109.037 137.762C106.592 135.476 103.427 134.116 100.086 133.914C96.6396 133.763 93.1976 134.3 89.9611 135.494C88.1331 136.123 86.3445 136.862 84.6051 137.706L85.071 137.973C84.998 134.716 85.095 131.451 85.155 128.195C85.2397 123.6 85.347 119.006 85.4771 114.412C85.5317 112.461 85.5917 110.511 85.657 108.562C85.6824 107.823 85.7097 107.084 85.7391 106.344C85.7681 105.644 86.7191 104.964 87.246 104.536C90.4138 102.19 94.3263 101.074 98.2551 101.398C102.598 101.655 106.996 103.725 108.439 108.098C108.563 108.474 109.16 108.313 109.039 107.934" fill="#003849"/>
<path fill-rule="evenodd" clip-rule="evenodd" d="M108.424 108.02C108.424 116.213 108.494 124.407 108.527 132.6C108.533 134.221 108.537 135.841 108.541 137.462C108.542 137.632 108.739 137.77 108.983 137.77C109.226 137.77 109.423 137.632 109.424 137.462C109.424 129.269 109.354 121.076 109.321 112.882C109.315 111.262 109.31 109.642 109.307 108.021C109.306 107.851 109.109 107.713 108.866 107.713C108.622 107.713 108.425 107.851 108.424 108.021" fill="#003849"/>
<path fill-rule="evenodd" clip-rule="evenodd" d="M87.897 109.586C88.3677 108.942 89.1516 108.605 89.943 108.706C90.577 108.867 91.1591 109.212 91.783 109.406C93.283 109.876 94.337 109.324 95.614 108.587C96.3007 108.134 97.1064 107.895 97.929 107.9C98.8848 108.067 99.8027 108.404 100.639 108.895C101.344 109.314 102.161 109.505 102.978 109.441C103.817 109.283 104.458 108.635 105.278 108.419C105.444 108.374 105.541 108.203 105.496 108.037C105.451 107.871 105.28 107.774 105.114 107.819C104.251 108.045 103.504 108.834 102.6 108.858C101.585 108.715 100.612 108.353 99.75 107.798C98.3273 107.086 96.6332 107.181 95.3 108.05C94.7168 108.463 94.0661 108.772 93.377 108.962C92.5335 109.019 91.6913 108.833 90.951 108.424C90.4557 108.159 89.9008 108.025 89.3391 108.034C88.6063 108.183 87.9445 108.573 87.459 109.142C87.174 109.42 87.611 109.857 87.897 109.58" fill="#003849"/>
<path fill-rule="evenodd" clip-rule="evenodd" d="M87.897 113.732C88.3679 113.088 89.1518 112.751 89.943 112.853C90.577 113.014 91.1591 113.359 91.783 113.553C93.283 114.023 94.337 113.471 95.614 112.733C96.3007 112.28 97.1064 112.041 97.929 112.047C98.8848 112.213 99.8027 112.55 100.639 113.041C101.344 113.459 102.161 113.65 102.978 113.587C103.817 113.431 104.458 112.781 105.278 112.565C105.444 112.52 105.541 112.349 105.496 112.183C105.451 112.017 105.28 111.92 105.114 111.965C104.251 112.192 103.503 112.98 102.6 113.004C101.585 112.861 100.612 112.499 99.75 111.944C98.3273 111.231 96.6332 111.327 95.3 112.196C94.717 112.61 94.0662 112.918 93.377 113.108C92.5336 113.166 91.6914 112.979 90.951 112.571C90.4557 112.306 89.9008 112.172 89.3391 112.181C88.6063 112.33 87.9445 112.719 87.459 113.288C87.173 113.566 87.611 114.003 87.897 113.726" fill="#003849"/>
<path fill-rule="evenodd" clip-rule="evenodd" d="M87.897 117.878C88.3678 117.234 89.1517 116.897 89.943 116.999C90.577 117.16 91.1591 117.505 91.783 117.699C93.283 118.169 94.337 117.617 95.614 116.88C96.3007 116.427 97.1063 116.188 97.929 116.193C98.8848 116.36 99.8027 116.697 100.639 117.188C101.344 117.607 102.161 117.797 102.978 117.734C103.817 117.575 104.458 116.928 105.278 116.712C105.444 116.667 105.541 116.496 105.496 116.33C105.451 116.164 105.28 116.067 105.114 116.112C104.251 116.339 103.504 117.127 102.6 117.151C101.585 117.008 100.612 116.646 99.75 116.091C98.3273 115.378 96.6332 115.474 95.3 116.343C94.7168 116.756 94.0661 117.065 93.377 117.255C92.5335 117.312 91.6914 117.125 90.951 116.717C90.4557 116.452 89.9008 116.318 89.3391 116.327C88.6063 116.476 87.9445 116.866 87.459 117.434C87.173 117.712 87.611 118.149 87.897 117.872" fill="#003849"/>
<path fill-rule="evenodd" clip-rule="evenodd" d="M87.897 122.026C88.3677 121.382 89.1516 121.045 89.943 121.146C90.577 121.308 91.1591 121.652 91.783 121.846C93.283 122.316 94.337 121.764 95.614 121.026C96.3007 120.573 97.1064 120.334 97.929 120.339C98.8848 120.505 99.8027 120.842 100.639 121.334C101.344 121.752 102.161 121.943 102.978 121.88C103.817 121.724 104.459 121.074 105.278 120.858C105.444 120.813 105.541 120.642 105.496 120.476C105.451 120.31 105.28 120.213 105.114 120.258C104.252 120.485 103.503 121.274 102.6 121.297C101.585 121.154 100.612 120.792 99.75 120.237C98.3273 119.524 96.6332 119.62 95.3 120.489C94.7168 120.902 94.0661 121.211 93.377 121.401C92.5334 121.459 91.6912 121.272 90.951 120.863C90.4557 120.598 89.9008 120.464 89.3391 120.473C88.6063 120.622 87.9445 121.012 87.459 121.581C87.174 121.859 87.611 122.296 87.897 122.019" fill="#003849"/>
<path fill-rule="evenodd" clip-rule="evenodd" d="M87.897 126.172C88.3678 125.528 89.1517 125.191 89.943 125.293C90.577 125.454 91.1591 125.799 91.783 125.993C93.283 126.463 94.337 125.911 95.614 125.173C96.3007 124.72 97.1064 124.481 97.929 124.487C98.8848 124.653 99.8029 124.99 100.639 125.482C101.344 125.9 102.161 126.091 102.978 126.028C103.817 125.872 104.458 125.222 105.278 125.006C105.444 124.961 105.541 124.79 105.496 124.624C105.451 124.458 105.28 124.361 105.114 124.406C104.251 124.633 103.504 125.421 102.6 125.445C101.585 125.302 100.612 124.94 99.75 124.385C98.3273 123.672 96.6332 123.768 95.3 124.637C94.717 125.051 94.0662 125.359 93.377 125.549C92.5336 125.607 91.6914 125.42 90.951 125.012C90.4557 124.747 89.9008 124.613 89.3391 124.622C88.6063 124.771 87.9445 125.16 87.459 125.729C87.173 126.007 87.611 126.444 87.897 126.167" fill="#003849"/>
<path fill-rule="evenodd" clip-rule="evenodd" d="M87.897 130.319C88.3677 129.675 89.1516 129.338 89.943 129.439C90.577 129.6 91.1591 129.945 91.783 130.139C93.283 130.609 94.337 130.057 95.614 129.32C96.3007 128.867 97.1064 128.628 97.929 128.633C98.8848 128.799 99.8027 129.136 100.639 129.628C101.344 130.047 102.161 130.238 102.978 130.174C103.817 130.016 104.458 129.368 105.278 129.152C105.444 129.107 105.541 128.936 105.496 128.77C105.451 128.604 105.28 128.507 105.114 128.552C104.251 128.779 103.504 129.567 102.6 129.591C101.585 129.448 100.612 129.086 99.75 128.531C98.3273 127.818 96.6332 127.914 95.3 128.783C94.7168 129.196 94.0661 129.505 93.3771 129.695C92.5335 129.752 91.6913 129.565 90.951 129.157C90.4557 128.892 89.9008 128.758 89.3391 128.767C88.6063 128.916 87.9445 129.306 87.459 129.875C87.174 130.153 87.611 130.59 87.897 130.313" fill="#003849"/>
<path fill-rule="evenodd" clip-rule="evenodd" d="M111.615 109.586C112.086 108.942 112.87 108.605 113.661 108.706C114.295 108.867 114.877 109.212 115.502 109.406C117.002 109.876 118.056 109.324 119.332 108.587C120.019 108.134 120.824 107.895 121.647 107.9C122.603 108.067 123.521 108.404 124.357 108.895C125.062 109.313 125.878 109.504 126.695 109.441C127.534 109.285 128.176 108.635 128.995 108.419C129.161 108.374 129.258 108.203 129.213 108.037C129.168 107.871 128.997 107.774 128.831 107.819C127.968 108.045 127.221 108.834 126.317 108.858C125.302 108.715 124.329 108.353 123.467 107.798C122.044 107.086 120.35 107.181 119.017 108.05C118.434 108.463 117.783 108.772 117.094 108.962C116.25 109.019 115.408 108.832 114.668 108.424C114.173 108.159 113.618 108.025 113.056 108.034C112.323 108.183 111.661 108.573 111.175 109.142C110.889 109.42 111.327 109.857 111.613 109.58" fill="#003849"/>
<path fill-rule="evenodd" clip-rule="evenodd" d="M111.615 113.732C112.086 113.088 112.87 112.751 113.661 112.853C114.295 113.014 114.877 113.359 115.502 113.553C117.002 114.023 118.056 113.471 119.332 112.733C120.019 112.28 120.824 112.041 121.647 112.047C122.603 112.213 123.521 112.55 124.357 113.041C125.062 113.459 125.878 113.65 126.695 113.587C127.534 113.431 128.176 112.781 128.995 112.565C129.161 112.52 129.258 112.349 129.213 112.183C129.168 112.017 128.997 111.92 128.831 111.965C127.968 112.192 127.22 112.98 126.317 113.004C125.302 112.861 124.329 112.499 123.467 111.944C122.044 111.231 120.35 111.327 119.017 112.196C118.434 112.609 117.783 112.918 117.094 113.108C116.251 113.165 115.408 112.979 114.668 112.571C114.173 112.306 113.618 112.172 113.056 112.181C112.323 112.329 111.661 112.719 111.175 113.288C110.889 113.566 111.327 114.003 111.613 113.726" fill="#003849"/>
<path fill-rule="evenodd" clip-rule="evenodd" d="M111.615 117.878C112.086 117.234 112.87 116.897 113.661 116.999C114.295 117.16 114.877 117.505 115.502 117.699C117.002 118.169 118.056 117.617 119.332 116.88C120.019 116.427 120.824 116.188 121.647 116.193C122.603 116.359 123.521 116.697 124.357 117.188C125.062 117.606 125.878 117.796 126.695 117.734C127.534 117.577 128.176 116.928 128.995 116.712C129.161 116.667 129.258 116.496 129.213 116.33C129.168 116.164 128.997 116.067 128.831 116.112C127.968 116.339 127.221 117.127 126.317 117.151C125.302 117.008 124.329 116.646 123.467 116.091C122.044 115.378 120.35 115.474 119.017 116.343C118.434 116.756 117.783 117.065 117.094 117.255C116.25 117.312 115.408 117.125 114.668 116.717C114.173 116.452 113.618 116.318 113.056 116.327C112.323 116.476 111.661 116.865 111.175 117.434C110.889 117.712 111.327 118.149 111.613 117.872" fill="#003849"/>
<path fill-rule="evenodd" clip-rule="evenodd" d="M111.615 122.026C112.086 121.382 112.87 121.045 113.661 121.146C114.295 121.308 114.877 121.652 115.502 121.846C117.002 122.316 118.056 121.764 119.332 121.026C120.019 120.573 120.824 120.334 121.647 120.339C122.603 120.505 123.521 120.842 124.357 121.334C125.062 121.752 125.878 121.943 126.695 121.88C127.534 121.724 128.176 121.074 128.995 120.858C129.161 120.813 129.258 120.642 129.213 120.476C129.168 120.31 128.997 120.213 128.831 120.258C127.969 120.485 127.22 121.274 126.317 121.297C125.302 121.154 124.329 120.792 123.467 120.237C122.044 119.524 120.35 119.62 119.017 120.489C118.434 120.902 117.783 121.211 117.094 121.401C116.25 121.459 115.408 121.272 114.668 120.863C114.173 120.598 113.618 120.464 113.056 120.473C112.323 120.622 111.661 121.012 111.175 121.581C110.889 121.859 111.327 122.296 111.613 122.019" fill="#003849"/>
<path fill-rule="evenodd" clip-rule="evenodd" d="M111.615 126.172C112.086 125.528 112.87 125.191 113.661 125.293C114.295 125.454 114.877 125.799 115.502 125.993C117.002 126.463 118.056 125.911 119.332 125.173C120.019 124.72 120.824 124.482 121.647 124.487C122.603 124.653 123.521 124.99 124.357 125.482C125.062 125.9 125.878 126.09 126.695 126.028C127.534 125.872 128.176 125.222 128.995 125.006C129.161 124.961 129.258 124.79 129.213 124.624C129.168 124.458 128.997 124.361 128.831 124.406C127.968 124.633 127.22 125.421 126.317 125.445C125.301 125.302 124.329 124.941 123.467 124.385C122.044 123.672 120.35 123.768 119.017 124.637C118.434 125.051 117.783 125.359 117.094 125.549C116.251 125.606 115.408 125.42 114.668 125.012C114.173 124.747 113.618 124.613 113.056 124.622C112.323 124.77 111.661 125.16 111.175 125.729C110.889 126.007 111.327 126.444 111.613 126.167" fill="#003849"/>
<path fill-rule="evenodd" clip-rule="evenodd" d="M111.615 130.319C112.086 129.675 112.87 129.338 113.661 129.439C114.295 129.6 114.877 129.945 115.502 130.139C117.002 130.609 118.056 130.057 119.332 129.32C120.019 128.867 120.824 128.628 121.647 128.633C122.603 128.799 123.521 129.136 124.357 129.628C125.062 130.046 125.878 130.237 126.695 130.174C127.534 130.018 128.176 129.368 128.995 129.152C129.161 129.107 129.258 128.936 129.213 128.77C129.168 128.604 128.997 128.507 128.831 128.552C127.968 128.779 127.221 129.567 126.317 129.591C125.302 129.448 124.329 129.086 123.467 128.531C122.044 127.818 120.35 127.914 119.017 128.783C118.434 129.196 117.783 129.505 117.094 129.695C116.25 129.752 115.408 129.565 114.668 129.157C114.173 128.892 113.618 128.758 113.056 128.767C112.323 128.916 111.661 129.306 111.175 129.875C110.889 130.153 111.327 130.59 111.613 130.313" fill="#003849"/>
<path fill-rule="evenodd" clip-rule="evenodd" d="M294.716 94.8931C290.855 88.3551 290.334 79.5321 294.058 72.8111C295.793 69.5786 298.65 67.0917 302.09 65.8181C306.404 64.3135 311.14 64.5968 315.244 66.6051C317.437 67.7467 319.393 69.2937 321.01 71.164C321.89 72.1638 322.697 73.2251 323.425 74.34C324.382 75.7298 325.232 77.1908 325.966 78.7101L326.076 78.2871C322.276 80.4541 318.368 82.4331 314.486 84.4431C309.63 86.9564 304.763 89.4514 299.886 91.9281C298.019 92.8794 296.153 93.8307 294.286 94.7821C293.932 94.9641 294.244 95.4971 294.598 95.3161C298.491 93.3241 302.387 91.3361 306.284 89.3521C311.152 86.8611 316.017 84.3651 320.853 81.8131C322.706 80.8351 324.561 79.8591 326.381 78.8211C326.524 78.7319 326.573 78.5462 326.492 78.3981C325.809 76.9892 325.027 75.6311 324.15 74.334C323.495 73.3092 322.778 72.3247 322.004 71.3861C320.541 69.5806 318.792 68.0267 316.827 66.7861C312.808 64.3702 307.996 63.6446 303.444 64.7681C299.736 65.6855 296.501 67.9483 294.368 71.1171C292.238 74.3719 291.053 78.1544 290.946 82.0431C290.735 86.6492 291.857 91.2185 294.175 95.2041C294.261 95.3515 294.451 95.4011 294.598 95.315C294.745 95.2288 294.795 95.0395 294.709 94.8921" fill="#003849"/>
<path fill-rule="evenodd" clip-rule="evenodd" d="M299.4 87.4061C297.078 83.4758 296.929 78.6303 299.006 74.5651C300.021 72.6634 301.705 71.2058 303.733 70.4741C306.246 69.6181 308.997 69.8043 311.372 70.9911C314.136 72.6067 316.303 75.0722 317.551 78.0201C317.588 77.8791 317.625 77.7381 317.662 77.5971C312.65 80.4541 307.434 82.9831 302.295 85.6021C301.188 86.1661 300.082 86.7301 298.977 87.2941C298.623 87.4761 298.935 88.009 299.289 87.828C304.431 85.1981 309.589 82.5981 314.698 79.9041C315.798 79.3241 316.898 78.7451 317.975 78.1301C318.119 78.0412 318.168 77.8551 318.086 77.707C316.883 74.9564 314.933 72.5977 312.458 70.8981C310.073 69.4276 307.201 68.9667 304.475 69.6171C299.769 70.7101 297.184 75.2431 296.956 79.817C296.814 82.58 297.478 85.3246 298.867 87.7171C298.953 87.8645 299.143 87.9141 299.29 87.828C299.438 87.7419 299.487 87.5526 299.401 87.4051" fill="#003849"/>
<path fill-rule="evenodd" clip-rule="evenodd" d="M296.852 90.3431C297.302 91.1511 297.536 92.0611 298.009 92.8571C298.095 93.0045 298.285 93.0542 298.432 92.9681C298.579 92.8819 298.629 92.6925 298.543 92.5451C298.07 91.7451 297.836 90.8391 297.386 90.0311C297.192 89.6831 296.658 89.9951 296.852 90.3431" fill="#003849"/>
<path fill-rule="evenodd" clip-rule="evenodd" d="M303.842 87.9291C304.102 88.5201 304.405 89.0916 304.747 89.6391C304.803 89.7345 304.905 89.793 305.016 89.7924C305.126 89.7919 305.228 89.7324 305.283 89.6364C305.337 89.5404 305.337 89.4225 305.281 89.3271C304.939 88.7795 304.636 88.208 304.376 87.6171C304.289 87.4705 304.101 87.421 303.953 87.5061C303.809 87.5949 303.76 87.7811 303.842 87.9291" fill="#003849"/>
<path fill-rule="evenodd" clip-rule="evenodd" d="M310.882 84.2581C311.031 84.5581 311.202 84.8381 311.359 85.1301C311.515 85.4 311.632 85.691 311.706 85.9941C311.751 86.1598 311.922 86.2574 312.088 86.2121C312.254 86.1668 312.351 85.9958 312.306 85.8301C312.085 85.1696 311.788 84.5373 311.42 83.9461C311.333 83.7995 311.145 83.75 310.997 83.8351C310.853 83.9236 310.804 84.1101 310.886 84.2581" fill="#003849"/>
<path fill-rule="evenodd" clip-rule="evenodd" d="M317.167 81.053C317.173 81.061 317.242 81.153 317.212 81.11L317.285 81.21C317.334 81.2767 317.381 81.3434 317.428 81.41C317.52 81.5434 317.608 81.6804 317.692 81.821C317.866 82.107 318.024 82.401 318.174 82.7C318.261 82.8462 318.449 82.8955 318.597 82.811C318.741 82.7222 318.79 82.5361 318.708 82.388C318.404 81.7605 318.035 81.1663 317.608 80.615C317.487 80.4949 317.292 80.4949 317.171 80.615C317.055 80.7379 317.055 80.9301 317.171 81.053" fill="#003849"/>
<path fill-rule="evenodd" clip-rule="evenodd" d="M324.37 75.4871C323.804 75.7961 323.237 76.1031 322.66 76.3921C322.514 76.4793 322.464 76.6674 322.549 76.8151C322.638 76.9586 322.824 77.0073 322.972 76.9261C323.548 76.6371 324.115 76.3261 324.681 76.0211C324.828 75.9343 324.877 75.7457 324.792 75.5981C324.703 75.4538 324.517 75.4049 324.369 75.4871" fill="#003849"/>
<path fill-rule="evenodd" clip-rule="evenodd" d="M319.731 69.8531C319.166 70.3651 318.556 70.8241 317.971 71.3111C317.851 71.4323 317.851 71.6278 317.971 71.7491C318.094 71.865 318.285 71.865 318.408 71.7491C318.994 71.2621 319.608 70.8031 320.168 70.2901C320.288 70.169 320.288 69.9742 320.168 69.8531C320.046 69.7366 319.853 69.7366 319.731 69.8531" fill="#003849"/>
<path fill-rule="evenodd" clip-rule="evenodd" d="M313.347 65.5411C312.987 66.0561 312.647 66.5861 312.291 67.1001C312.206 67.2478 312.256 67.436 312.402 67.5231C312.55 67.6049 312.736 67.556 312.825 67.4121C313.185 66.8981 313.525 66.3681 313.881 65.8531C313.966 65.7055 313.917 65.5169 313.77 65.4301C313.622 65.3484 313.436 65.3973 313.347 65.5411Z" fill="#003849"/>
<path fill-rule="evenodd" clip-rule="evenodd" d="M305.923 64.8101C305.774 65.4521 305.569 66.0791 305.423 66.7211C305.378 66.8868 305.475 67.0578 305.641 67.1031C305.807 67.1484 305.978 67.0508 306.023 66.8851C306.172 66.2431 306.377 65.6161 306.523 64.9741C306.568 64.8084 306.471 64.6374 306.305 64.5921C306.139 64.5469 305.968 64.6444 305.923 64.8101Z" fill="#003849"/>
<path fill-rule="evenodd" clip-rule="evenodd" d="M298.007 67.9761C298.402 68.4191 298.868 68.7901 299.264 69.2331C299.385 69.3527 299.58 69.3527 299.701 69.2331C299.818 69.1105 299.818 68.9176 299.701 68.7951C299.301 68.3531 298.839 67.9811 298.444 67.5381C298.323 67.4185 298.128 67.4185 298.007 67.5381C297.889 67.6604 297.889 67.8537 298.007 67.9761" fill="#003849"/>
<path fill-rule="evenodd" clip-rule="evenodd" d="M293.265 74.6441C293.776 74.8237 294.296 74.975 294.824 75.0971C294.931 75.1266 295.046 75.0967 295.125 75.0186C295.204 74.9405 295.236 74.8261 295.208 74.7186C295.18 74.611 295.096 74.5266 294.989 74.4971C294.461 74.3749 293.941 74.2236 293.43 74.0441C293.266 74.0004 293.096 74.0964 293.049 74.2601C293.008 74.4242 293.103 74.5917 293.265 74.6401" fill="#003849"/>
<path fill-rule="evenodd" clip-rule="evenodd" d="M291.436 82.7336C292.153 82.6713 292.868 82.5979 293.58 82.4743C293.744 82.4184 293.841 82.2107 293.796 82.0094C293.747 81.8115 293.58 81.6953 293.416 81.7452C292.766 81.8577 292.097 81.9189 291.437 81.9776C291.326 81.9771 291.224 82.0491 291.169 82.1662C291.113 82.2834 291.113 82.4278 291.169 82.545C291.224 82.6622 291.326 82.7341 291.437 82.7336" fill="#003849"/>
<path fill-rule="evenodd" clip-rule="evenodd" d="M292.674 90.0321C293.231 89.8348 293.776 89.6064 294.307 89.348C294.453 89.2609 294.502 89.0724 294.417 88.925C294.328 88.7812 294.142 88.7324 293.994 88.814C293.867 88.8771 293.739 88.939 293.61 88.997L293.428 89.077L293.35 89.111L293.293 89.135C293.033 89.2411 292.771 89.341 292.508 89.4351C292.342 89.4806 292.245 89.6518 292.29 89.8175C292.336 89.9832 292.507 90.0806 292.673 90.0351" fill="#003849"/>
<path fill-rule="evenodd" clip-rule="evenodd" d="M91.4899 79.8561C92.4899 75.3651 87.9789 70.961 88.1619 66.192C88.382 61.692 92.108 59.567 96.2869 60.332C101.169 61.332 105.02 64.993 104.487 70.425C104.115 74.2161 100.936 76.271 98.5379 78.7251C97.7137 79.5534 97.0345 80.5145 96.5289 81.5681" fill="#FFD066"/>
<path fill-rule="evenodd" clip-rule="evenodd" d="M96.176 81.3821C94.876 80.9441 93.528 80.6011 92.254 80.0761C91.3106 79.6265 90.2619 79.4442 89.222 79.5491C88.637 79.6341 87.8541 79.8961 87.7551 80.5761C87.6241 81.4671 88.731 82.1031 89.366 82.4591L89.4401 81.8941C88.5671 82.0941 87.205 82.4341 86.7971 83.3491C86.2971 84.4711 87.913 85.1751 88.681 85.4961V84.8961C87.8571 85.2021 85.981 85.8911 86.524 87.1221C86.7906 87.5894 87.1936 87.9642 87.679 88.1961C88.3569 88.5737 89.0646 88.8951 89.795 89.1571C91.2618 89.7485 92.791 90.1718 94.353 90.4191C95.178 90.5301 96.501 90.5191 96.742 89.4911C96.983 88.4631 95.955 87.4911 95.1771 87.0081L95.0211 87.5841C96.014 87.5621 97.544 87.2961 97.513 86.0031C97.3285 84.9489 96.6087 84.0666 95.613 83.6741L95.3751 84.2391C96.199 84.4391 98.402 84.8981 98.613 83.5601C98.801 82.3601 97.046 81.6441 96.178 81.3781C95.7971 81.2611 95.6331 81.8581 96.0131 81.9781C96.5447 82.122 97.0451 82.3631 97.4891 82.6891C97.689 82.8461 98.0421 83.1541 98.006 83.4481C97.9061 84.2351 95.913 83.7371 95.54 83.6481C95.2131 83.5691 94.975 84.0481 95.3021 84.2131C96.0538 84.5061 96.6345 85.1209 96.884 85.8881C97.0471 86.8561 95.67 86.9571 95.023 86.9711C94.8859 86.9755 94.7678 87.069 94.7319 87.2014C94.696 87.3338 94.7509 87.4741 94.867 87.5471C95.4061 87.8831 96.1331 88.4841 96.155 89.1861C96.181 90.0081 94.894 89.8861 94.384 89.8101C93.1838 89.5976 92.0032 89.2866 90.8541 88.8801C89.6906 88.5643 88.585 88.0647 87.579 87.4001C87.321 87.2091 86.929 86.9001 87.103 86.5381C87.376 85.9781 88.327 85.6901 88.847 85.4971C88.981 85.4589 89.0734 85.3364 89.0734 85.1971C89.0734 85.0578 88.981 84.9354 88.847 84.8971C88.4091 84.7141 86.886 84.1181 87.475 83.4291C88.0766 82.9111 88.8181 82.5829 89.606 82.4861C89.7241 82.451 89.8104 82.3497 89.8264 82.2276C89.8423 82.1056 89.785 81.9855 89.6801 81.9211C89.36 81.7411 88.043 81.0621 88.436 80.5211C88.777 80.0471 89.764 80.0971 90.259 80.1421C91.1594 80.3056 92.0357 80.5817 92.8671 80.9641C93.907 81.3301 94.967 81.6271 96.014 81.9771C96.392 82.1041 96.5551 81.5071 96.179 81.3771" fill="#003849"/>
<path fill-rule="evenodd" clip-rule="evenodd" d="M88.866 82.3831L93.784 84.0501C94.162 84.1781 94.324 83.5811 93.948 83.4501L89.031 81.7811C88.653 81.6531 88.491 82.2491 88.866 82.3811" fill="#003849"/>
<path fill-rule="evenodd" clip-rule="evenodd" d="M90.8791 86.2L94.938 87.577C95.3161 87.705 95.4781 87.109 95.1031 86.977L91.0441 85.6C90.6661 85.472 90.5041 86.069 90.8801 86.2" fill="#003849"/>
<path fill-rule="evenodd" clip-rule="evenodd" d="M92.723 80.2881C93.5597 79.2922 94.1219 78.095 94.354 76.8151C94.4836 75.6867 94.5331 74.5505 94.502 73.4151C94.6926 72.1074 94.6455 70.7761 94.363 69.4851C94.2281 68.9137 93.8293 68.4407 93.289 68.2111C92.6358 68.0201 91.9303 68.1839 91.428 68.6431C90.3 69.7991 91.428 71.8711 92.544 72.5641C94.806 73.9641 96.444 71.4161 97.312 69.6701L96.736 69.5141C96.676 70.8541 96.684 73.0771 98.091 73.7871C99.361 74.4271 100.723 73.4111 101.168 72.2411C101.458 71.4791 101.468 69.8251 100.203 70.1721C99.5078 70.4686 98.9189 70.969 98.514 71.6071C97.8979 72.4286 97.3807 73.3197 96.973 74.2621C96.0159 76.444 95.3139 78.7292 94.881 81.0721C94.806 81.4611 95.402 81.6271 95.481 81.2361C95.7795 79.6899 96.1838 78.166 96.691 76.6751C97.1936 75.0309 97.9504 73.4754 98.934 72.0651C99.244 71.6531 100.834 69.8751 100.734 71.3861C100.709 72.4441 99.8647 73.2998 98.807 73.3381C97.236 73.2381 97.301 70.6191 97.35 69.5121C97.3471 69.3742 97.2536 69.2547 97.1204 69.2186C96.9872 69.1825 96.8462 69.2385 96.774 69.3561C96.13 70.6561 95.012 72.9071 93.207 72.2071C92.5427 71.9198 92.0262 71.3714 91.7791 70.6911C91.579 70.1911 91.452 69.4111 91.927 69.0131C92.3462 68.6747 92.9396 68.6571 93.3781 68.9701C93.7012 69.3505 93.8902 69.8267 93.916 70.3251C94.0076 71.3433 93.9962 72.3682 93.882 73.3841C93.827 74.3631 93.9511 75.3251 93.809 76.3071C93.6429 77.6081 93.1137 78.836 92.282 79.8501C92.0281 80.1501 92.463 80.5921 92.7191 80.2881" fill="#003849"/>
<path fill-rule="evenodd" clip-rule="evenodd" d="M326.212 20.8721C321.703 20.481 317.444 22.9984 315.612 27.1371C313.854 31.0675 314.456 35.6527 317.169 38.9961C320.674 42.8073 325.989 44.3862 331.006 43.1071C333.395 42.4512 335.426 40.8737 336.653 38.7211C337.854 36.4574 338.362 33.8907 338.116 31.3401C337.955 29.0716 337.087 26.9107 335.634 25.1611C333.795 23.1499 331.358 21.7848 328.682 21.2681C327.868 21.088 327.044 20.9545 326.215 20.8681C325.82 20.8251 325.823 21.4441 326.215 21.4861C329.085 21.6757 331.831 22.7238 334.098 24.4941C335.749 25.9258 336.878 27.8659 337.306 30.0091C338.247 34.5541 336.639 39.9921 332.183 42.0231C327.904 43.9741 322.064 42.7001 318.627 39.6111C315.631 36.8359 314.489 32.5894 315.691 28.6861C316.956 24.0283 321.415 20.9776 326.215 21.4861C326.615 21.5131 326.615 20.8951 326.215 20.8681" fill="#003849"/>
<path fill-rule="evenodd" clip-rule="evenodd" d="M326.286 23.9831C323.009 23.701 319.917 25.536 318.594 28.5471C317.328 31.3985 317.774 34.72 319.748 37.1361C322.293 39.8941 326.15 41.0272 329.782 40.084C333.492 39.0131 335.21 35.2481 334.907 31.5941C334.784 29.7215 333.991 27.9557 332.673 26.6201C330.901 25.05 328.653 24.12 326.289 23.9791C325.894 23.9351 325.897 24.5541 326.289 24.5971C329.911 24.9971 333.367 26.8271 334.155 30.6441C334.821 33.8691 333.677 37.7291 330.508 39.1611C327.209 40.4132 323.488 39.7285 320.851 37.3841C318.759 35.4034 317.979 32.4038 318.841 29.6551C319.803 26.411 322.919 24.2951 326.289 24.597C326.689 24.6231 326.689 24.0051 326.289 23.9791" fill="#003849"/>
<path fill-rule="evenodd" clip-rule="evenodd" d="M353.614 30.9301C349.102 30.535 344.839 33.0526 343.006 37.1941C341.248 41.1245 341.85 45.7098 344.563 49.0531C348.069 52.867 353.386 54.4473 358.405 53.1671C360.794 52.5109 362.825 50.9335 364.052 48.7811C365.252 46.5173 365.761 43.9506 365.514 41.4001C365.353 39.1315 364.485 36.9705 363.032 35.2211C361.193 33.21 358.755 31.8448 356.08 31.3281C355.266 31.1478 354.442 31.0143 353.613 30.9281C353.218 30.8851 353.221 31.5041 353.613 31.5461C356.483 31.7358 359.229 32.7838 361.496 34.5541C363.148 35.9856 364.276 37.9258 364.704 40.0691C365.645 44.6141 364.038 50.0521 359.581 52.0821C355.302 54.0331 349.462 52.7591 346.025 49.6701C343.028 46.8951 341.887 42.6484 343.089 38.7451C344.354 34.0873 348.813 31.0367 353.613 31.5451C354.013 31.5721 354.013 30.9541 353.613 30.9271" fill="#003849"/>
<path fill-rule="evenodd" clip-rule="evenodd" d="M353.683 34.0431C350.406 33.7611 347.314 35.5961 345.991 38.6071C344.724 41.4585 345.17 44.7802 347.145 47.1961C349.69 49.9522 353.544 51.0847 357.175 50.1431C360.885 49.0721 362.603 45.3061 362.3 41.6521C362.175 39.7805 361.381 38.0163 360.063 36.6821C358.291 35.112 356.043 34.1821 353.679 34.0411C353.284 33.9971 353.287 34.6161 353.679 34.6591C357.301 35.0591 360.757 36.8891 361.545 40.7061C362.211 43.9311 361.067 47.7911 357.898 49.2231C354.599 50.4757 350.878 49.7909 348.241 47.4461C346.15 45.4652 345.37 42.4659 346.231 39.7171C347.193 36.4729 350.309 34.3566 353.679 34.6581C354.079 34.6841 354.079 34.0661 353.679 34.0401" fill="#003849"/>
<path fill-rule="evenodd" clip-rule="evenodd" d="M338.096 34.3591C339.925 33.2231 342.531 34.4011 343.496 36.1531C343.688 36.5011 344.223 36.1901 344.03 35.8411C342.903 33.7991 339.892 32.5141 337.781 33.8251C337.444 34.0351 337.754 34.5701 338.094 34.3591" fill="#003849"/>
<path fill-rule="evenodd" clip-rule="evenodd" d="M337.626 36.7141C339.346 35.5631 341.771 36.6501 342.642 38.3661C342.822 38.7211 343.355 38.4091 343.176 38.0541C342.159 36.0541 339.302 34.8541 337.314 36.1801C336.985 36.4001 337.294 36.9361 337.626 36.7141Z" fill="#003849"/>
<path fill-rule="evenodd" clip-rule="evenodd" d="M321.235 30.0571L326.63 27.5571C326.991 27.3901 326.677 26.8571 326.317 27.0231L320.922 29.5231C320.562 29.6901 320.875 30.2231 321.235 30.0571Z" fill="#003849"/>
<path fill-rule="evenodd" clip-rule="evenodd" d="M323.049 33.49C325.543 32.334 328.026 31.154 330.521 29.998C330.881 29.831 330.568 29.298 330.209 29.464C327.715 30.62 325.231 31.8 322.737 32.956C322.377 33.123 322.69 33.656 323.05 33.49" fill="#003849"/>
<path fill-rule="evenodd" clip-rule="evenodd" d="M326.924 35.321C327.665 35.009 328.384 34.649 329.114 34.311C329.26 34.2235 329.309 34.0354 329.224 33.888C329.136 33.7433 328.949 33.6942 328.801 33.777C328.12 34.094 327.451 34.435 326.759 34.726C326.598 34.7761 326.504 34.9423 326.543 35.106C326.59 35.2701 326.759 35.3663 326.924 35.322" fill="#003849"/>
<path fill-rule="evenodd" clip-rule="evenodd" d="M348.123 41.7271L355.317 38.3961C355.678 38.2291 355.364 37.6961 355.005 37.8621L347.811 41.1931C347.451 41.3601 347.764 41.8931 348.123 41.7271Z" fill="#003849"/>
<path fill-rule="evenodd" clip-rule="evenodd" d="M352.642 45.0961C354.042 44.4168 355.453 43.7638 356.874 43.1371C357.021 43.0503 357.07 42.8617 356.985 42.7141C356.896 42.5698 356.71 42.5208 356.562 42.6031C355.139 43.2304 353.729 43.8834 352.33 44.5621C351.972 44.7361 352.286 45.2691 352.642 45.0961Z" fill="#003849"/>
<path fill-rule="evenodd" clip-rule="evenodd" d="M356.75 46.3179L357.125 46.1002C357.161 46.0762 357.191 46.0413 357.213 45.9989C357.24 45.9613 357.26 45.9156 357.269 45.866C357.281 45.8155 357.283 45.7619 357.274 45.7103C357.272 45.6585 357.259 45.6082 357.236 45.5648C357.195 45.4769 357.129 45.4125 357.05 45.385L356.966 45.3711C356.911 45.3711 356.856 45.3894 356.808 45.4243L356.434 45.642C356.398 45.6662 356.368 45.7009 356.346 45.7432C356.292 45.8231 356.269 45.929 356.284 46.0319C356.286 46.0837 356.299 46.134 356.321 46.1774C356.362 46.2656 356.429 46.3301 356.508 46.3572L356.591 46.3711C356.646 46.3713 356.701 46.353 356.749 46.3179" fill="#003849"/>
<path fill-rule="evenodd" clip-rule="evenodd" d="M82.694 39.2961C79.457 39.9111 76.233 40.6071 73.024 41.3551C71.704 41.6631 70.373 41.9611 69.08 42.3671C68.7835 42.4324 68.4998 42.5459 68.24 42.7031C67.9529 43.0263 67.7949 43.4439 67.796 43.8761C67.6013 45.4907 67.5251 47.1174 67.568 48.7432C67.5698 48.8531 67.6293 48.954 67.7246 49.0088C67.82 49.0636 67.9372 49.0641 68.033 49.0101C68.7659 48.4849 69.4227 47.861 69.985 47.1561C70.2946 46.7239 70.6544 46.3302 71.057 45.9831C71.8395 45.4587 72.6636 44.9991 73.521 44.6091C75.837 43.4501 78.207 42.4091 80.521 41.2431C81.3945 40.856 82.2239 40.3762 82.995 39.8121C83.304 39.5611 82.865 39.1261 82.558 39.3741C81.8909 39.8561 81.1754 40.2673 80.423 40.6011C79.323 41.1581 78.208 41.6841 77.093 42.2101C74.9769 43.103 72.9238 44.1387 70.9481 45.3101C69.675 46.1411 68.997 47.6101 67.72 48.4741L68.1851 48.7421C68.1851 47.3881 68.199 46.0291 68.32 44.6801C68.353 44.3141 68.361 43.4551 68.585 43.2111C68.8243 43.0784 69.0826 42.9836 69.351 42.9301C72.231 42.0501 75.223 41.4721 78.165 40.8471C79.726 40.5151 81.29 40.1891 82.859 39.8901C83.249 39.8161 83.084 39.2201 82.694 39.2901" fill="#003849"/>
<path fill-rule="evenodd" clip-rule="evenodd" d="M70.626 46.4901C71.811 47.5901 72.79 48.8801 73.941 50.0111C74.43 50.4921 75.073 51.0251 75.65 50.3911C76.2538 49.6828 76.8192 48.9427 77.344 48.1741C78.275 46.8971 79.185 45.6061 80.085 44.3071C81.2144 42.6778 82.324 41.0351 83.414 39.3791C83.633 39.0451 83.098 38.7351 82.88 39.0671C80.821 42.2051 78.696 45.3081 76.468 48.3291C76.131 48.7861 75.793 49.2421 75.437 49.6841C75.17 50.0131 75.118 50.1911 74.729 49.8941C74.1651 49.4035 73.6488 48.8608 73.187 48.2731C72.507 47.5061 71.814 46.7521 71.063 46.0531C70.772 45.7821 70.333 46.2191 70.626 46.4911" fill="#003849"/>
<path fill-rule="evenodd" clip-rule="evenodd" d="M83.147 38.9141C79.523 38.7451 75.9 38.5321 72.272 38.4411C70.527 38.3971 68.772 38.3561 67.028 38.4631C66.528 38.4931 64.965 38.4341 64.854 39.1631C64.754 39.8151 65.745 40.7071 66.121 41.1301C66.76 41.8621 67.4398 42.5576 68.157 43.2131C68.452 43.4791 68.89 43.0431 68.594 42.7761C68.034 42.2761 67.509 41.7231 66.994 41.1761C66.694 40.8521 66.394 40.5221 66.115 40.1761C65.981 40.0131 65.849 39.8481 65.73 39.6761C65.6635 39.533 65.5828 39.397 65.489 39.2701C65.352 39.1561 65.527 39.3341 65.43 39.3331C65.3929 39.3331 65.477 39.3191 65.46 39.3171C65.6376 39.2918 65.8121 39.2486 65.981 39.1881C66.517 39.1098 67.0574 39.0657 67.599 39.0561C71.126 38.9171 74.677 39.1211 78.199 39.2881C79.848 39.3661 81.499 39.4581 83.147 39.5351C83.547 39.5531 83.547 38.9351 83.147 38.9171" fill="#003849"/>
<path fill-rule="evenodd" clip-rule="evenodd" d="M52.504 70.3091C56.3538 69.1437 59.2541 65.9605 60.057 62.0191C60.3547 60.492 60.0957 58.9088 59.327 57.5561C58.5956 56.222 57.4766 55.1411 56.118 54.4561C54.9506 53.8412 53.5283 53.9863 52.509 54.8241C51.322 55.8361 50.4091 57.8241 51.228 59.3041C52.072 60.8301 54.1281 61.1981 55.7141 61.1491C57.7991 61.0902 59.7762 60.2092 61.2141 58.6981C62.361 57.4511 62.769 55.7401 63.3051 54.1801C63.5535 53.3438 63.9358 52.5532 64.437 51.8391C64.9919 51.0703 65.8326 50.5571 66.77 50.4151C66.9407 50.4151 67.079 50.2768 67.079 50.1061C67.079 49.9355 66.9407 49.7971 66.77 49.7971C65.5173 49.9626 64.4051 50.6817 63.7401 51.7561C63.0849 52.9024 62.5836 54.1299 62.249 55.4071C61.8772 56.7853 61.1008 58.0205 60.0201 58.9531C58.3673 60.2573 56.2363 60.7936 54.163 60.4271C52.55 60.1271 51.0991 59.0041 51.678 57.2121C52.129 55.8211 53.3151 54.4771 54.897 54.7121C56.2109 55.0202 57.3659 55.7999 58.1431 56.9031C59.0461 57.9667 59.5485 59.3129 59.563 60.7081C59.525 64.8491 56.191 68.5441 52.345 69.7151C51.9661 69.8301 52.1281 70.4271 52.5101 70.3151" fill="#003849"/>
<path fill-rule="evenodd" clip-rule="evenodd" d="M16.1799 133.166C34.2319 114.866 56.9799 112.641 80.97 111.157C78.2499 116.597 66.627 122.532 60.939 125.5C55.3661 128.273 49.577 130.589 43.629 132.424C34.7289 134.65 25.329 132.919 16.429 133.166" fill="#D67676"/>
<path fill-rule="evenodd" clip-rule="evenodd" d="M17.022 133.524C24.4631 130.767 31.887 127.952 39.4291 125.479C46.7961 123.064 54.321 121.254 61.7631 119.099C65.8002 117.971 69.7596 116.582 73.6161 114.939C74.053 114.748 73.676 114.109 73.2421 114.299C66.2891 117.339 58.882 119.141 51.576 121.099C44.045 123.122 36.649 125.545 29.3151 128.199C25.1411 129.707 20.9871 131.267 16.8251 132.809C16.381 132.974 16.574 133.691 17.025 133.525" fill="#003849"/>
<path fill-rule="evenodd" clip-rule="evenodd" d="M35.3341 122.024C33.0441 124.296 30.0941 125.97 28.2281 128.652C28.1439 128.798 28.1676 128.982 28.2861 129.102C29.7391 130.364 31.7791 130.52 33.5191 131.176C33.9671 131.344 34.1601 130.628 33.7191 130.46C32.1191 129.86 30.1441 129.733 28.8141 128.577L28.8721 129.027C30.6931 126.408 33.6231 124.769 35.8621 122.549C36.0071 122.403 36.0064 122.168 35.8606 122.023C35.7148 121.878 35.4791 121.878 35.3341 122.024" fill="#003849"/>
<path fill-rule="evenodd" clip-rule="evenodd" d="M44.669 118.512C43.134 120.665 41.122 122.438 39.723 124.694C39.6661 124.794 39.6581 124.914 39.7015 125.021C39.7448 125.128 39.8345 125.208 39.945 125.24C43.056 126.004 46.316 126.103 49.345 127.218C49.794 127.383 49.987 126.666 49.545 126.502C46.519 125.387 43.259 125.289 40.145 124.524C40.219 124.706 40.292 124.888 40.367 125.07C41.767 122.816 43.777 121.039 45.313 118.888C45.59 118.498 44.947 118.128 44.672 118.513" fill="#003849"/>
<path fill-rule="evenodd" clip-rule="evenodd" d="M54.194 116.41C53.316 118.01 52.111 119.604 51.808 121.445C51.7604 121.642 51.8737 121.842 52.067 121.902C53.8843 122.527 55.7437 123.023 57.631 123.386C58.097 123.479 58.297 122.764 57.831 122.67C55.9434 122.309 54.084 121.813 52.267 121.186C52.3524 121.338 52.4387 121.49 52.526 121.642C52.82 119.864 53.989 118.331 54.838 116.785C55.068 116.366 54.428 115.991 54.197 116.41" fill="#003849"/>
<path fill-rule="evenodd" clip-rule="evenodd" d="M63.5511 115.263C63.1263 116.315 62.7548 117.388 62.438 118.478C62.3962 118.64 62.4658 118.81 62.6091 118.897C63.6812 119.356 64.7838 119.74 65.9091 120.047C66.3641 120.197 66.558 119.481 66.1091 119.331C65.0435 119.045 63.9991 118.686 62.9831 118.256L63.1531 118.674C63.4701 117.584 63.8416 116.511 64.2661 115.459C64.4191 115.005 63.7031 114.811 63.5511 115.259" fill="#003849"/>
<path fill-rule="evenodd" clip-rule="evenodd" d="M48.699 118.7C48.3714 118.719 48.1152 118.99 48.1152 119.318C48.1152 119.646 48.3714 119.917 48.699 119.936C49.0267 119.917 49.2828 119.646 49.2828 119.318C49.2828 118.99 49.0267 118.719 48.699 118.7Z" fill="#003849"/>
<path fill-rule="evenodd" clip-rule="evenodd" d="M50.3069 116.969C49.9793 116.988 49.7231 117.259 49.7231 117.587C49.7231 117.915 49.9793 118.186 50.3069 118.205C50.6346 118.186 50.8907 117.915 50.8907 117.587C50.8907 117.259 50.6346 116.988 50.3069 116.969Z" fill="#003849"/>
<path fill-rule="evenodd" clip-rule="evenodd" d="M60.3221 120.431C59.9944 120.45 59.7383 120.721 59.7383 121.049C59.7383 121.377 59.9944 121.648 60.3221 121.667C60.6497 121.648 60.9058 121.377 60.9058 121.049C60.9058 120.721 60.6497 120.45 60.3221 120.431Z" fill="#003849"/>
<path fill-rule="evenodd" clip-rule="evenodd" d="M62.053 121.42C61.7254 121.439 61.4692 121.71 61.4692 122.038C61.4692 122.366 61.7254 122.637 62.053 122.656C62.3807 122.637 62.6368 122.366 62.6368 122.038C62.6368 121.71 62.3807 121.439 62.053 121.42Z" fill="#003849"/>
<path fill-rule="evenodd" clip-rule="evenodd" d="M75.9011 113.136C75.5734 113.155 75.3173 113.426 75.3173 113.754C75.3173 114.082 75.5734 114.353 75.9011 114.372C76.2287 114.353 76.4848 114.082 76.4848 113.754C76.4848 113.426 76.2287 113.155 75.9011 113.136Z" fill="#003849"/>
<path fill-rule="evenodd" clip-rule="evenodd" d="M1.19891 113.216C0.456909 99.6161 1.19891 86.2611 9.60693 74.8861C16.778 65.4861 29.1429 57.8231 40.2709 54.3611C40.0239 66.7261 34.0889 82.5521 26.1709 91.9491C22.2117 96.5695 17.7336 100.718 12.825 104.314C9.36292 107.034 5.65393 111.485 1.2019 112.475" fill="#5596A5"/>
<path fill-rule="evenodd" clip-rule="evenodd" d="M2.54596 111.089C5.77185 103.625 9.67871 96.4742 14.2169 89.7272C16.343 86.4941 18.595 83.3561 20.8019 80.1801C22.939 77.1061 24.926 73.9311 27.0359 70.8401C29.2708 67.3754 31.8907 64.1749 34.8459 61.3001C35.1979 60.9761 34.671 60.4521 34.321 60.7761C28.858 65.8161 25.1429 72.4761 21.011 78.5681C18.829 81.7881 16.525 84.9221 14.366 88.1601C12.126 91.5191 9.97394 94.9381 7.97797 98.4491C5.68341 102.471 3.6308 106.626 1.83099 110.893C1.64697 111.332 2.36395 111.524 2.54596 111.093" fill="#003849"/>
<path fill-rule="evenodd" clip-rule="evenodd" d="M4.66199 93.8051C4.80634 96.8231 5.14038 99.829 5.66199 102.805C5.70764 102.965 5.85333 103.076 6.01996 103.078C7.6413 103.132 9.2583 102.881 10.787 102.338C12.3512 101.854 13.8785 101.258 15.3571 100.554C15.789 100.354 15.412 99.711 14.983 99.914C13.5611 100.588 12.0927 101.159 10.5891 101.623C9.12445 102.146 7.57428 102.388 6.01996 102.336L6.37799 102.609C5.86865 99.699 5.54272 96.7599 5.40198 93.809C5.38098 93.334 4.63898 93.331 4.65997 93.809" fill="#003849"/>
<path fill-rule="evenodd" clip-rule="evenodd" d="M11.215 81.5631C11.4579 85.2501 10.5659 89.0491 11.5989 92.6631C11.646 92.8224 11.7908 92.9329 11.957 92.9361C13.8611 92.9391 15.7546 92.6532 17.5729 92.0881C19.4376 91.6127 21.2285 90.8846 22.8959 89.9241C23.3029 89.6761 22.931 89.0341 22.522 89.2841C20.9091 90.2165 19.176 90.9231 17.3709 91.3841C15.6167 91.9311 13.7895 92.208 11.952 92.2051L12.3099 92.4781C11.298 88.9341 12.1899 85.1871 11.952 81.5721C11.921 81.0981 11.179 81.0941 11.21 81.5721" fill="#003849"/>
<path fill-rule="evenodd" clip-rule="evenodd" d="M17.644 73.898C17.644 75.166 17.544 76.433 17.525 77.698C17.4094 79.1969 17.5186 80.7045 17.849 82.171C17.9282 82.598 18.2075 82.9611 18.6 83.147C19.0733 83.2982 19.5727 83.3503 20.067 83.3C21.6253 83.1921 23.1712 82.9482 24.687 82.571C26.087 82.262 27.478 81.897 28.871 81.548C29.061 81.4867 29.1688 81.2863 29.1151 81.0939C29.0613 80.9016 28.8654 80.786 28.671 80.832C26.123 81.5634 23.5275 82.1181 20.903 82.492C20.23 82.565 18.876 82.861 18.595 82.077C18.2561 80.7487 18.1436 79.3728 18.262 78.007C18.272 76.636 18.378 75.266 18.384 73.896C18.384 73.6911 18.2179 73.525 18.013 73.525C17.8081 73.525 17.642 73.6911 17.642 73.896" fill="#003849"/>
<path fill-rule="evenodd" clip-rule="evenodd" d="M24.4451 65.366C24.438 66.5591 24.277 67.7511 24.238 68.944C24.0745 70.1406 24.2166 71.3592 24.6511 72.4861C25.144 73.3741 26.337 73.1951 27.179 73.0591C28.5908 72.7954 29.975 72.4014 31.314 71.882C32.566 71.431 33.814 70.94 35.014 70.382C35.447 70.1821 35.071 69.543 34.64 69.742C32.4752 70.7667 30.2146 71.5756 27.8911 72.157C27.3632 72.2942 26.8234 72.381 26.2791 72.416C25.9871 72.4281 25.572 72.4621 25.358 72.2251C25.1238 71.8342 25.0036 71.3856 25.011 70.9301C24.9597 70.3078 24.9467 69.6829 24.972 69.0591C25.007 67.827 25.1721 66.5961 25.183 65.364C25.183 65.1591 25.0169 64.993 24.812 64.993C24.6071 64.993 24.441 65.1591 24.441 65.364" fill="#003849"/>
<path fill-rule="evenodd" clip-rule="evenodd" d="M19.128 69.3231C18.8003 69.3418 18.5442 69.6129 18.5442 69.9411C18.5442 70.2693 18.8003 70.5405 19.128 70.5591C19.4556 70.5404 19.7117 70.2693 19.7117 69.9411C19.7117 69.6129 19.4556 69.3418 19.128 69.3231Z" fill="#003849"/>
<path fill-rule="evenodd" clip-rule="evenodd" d="M20.8589 67.4641C20.5313 67.4828 20.2751 67.7539 20.2751 68.0821C20.2751 68.4103 20.5313 68.6815 20.8589 68.7001C21.1866 68.6814 21.4427 68.4103 21.4427 68.0821C21.4427 67.7539 21.1866 67.4828 20.8589 67.4641Z" fill="#003849"/>
<path fill-rule="evenodd" clip-rule="evenodd" d="M21.3531 70.0641C21.0254 70.0827 20.7693 70.3539 20.7693 70.6821C20.7693 71.0103 21.0254 71.2814 21.3531 71.3001C21.6807 71.2814 21.9368 71.0103 21.9368 70.6821C21.9368 70.3539 21.6807 70.0828 21.3531 70.0641Z" fill="#003849"/>
<path fill-rule="evenodd" clip-rule="evenodd" d="M29.019 76.9891C28.6913 77.0078 28.4352 77.2789 28.4352 77.6071C28.4352 77.9353 28.6913 78.2065 29.019 78.2251C29.3466 78.2064 29.6027 77.9353 29.6027 77.6071C29.6027 77.279 29.3466 77.0078 29.019 76.9891Z" fill="#003849"/>
<path fill-rule="evenodd" clip-rule="evenodd" d="M30.7501 74.6351C30.4224 74.6538 30.1663 74.9249 30.1663 75.2531C30.1663 75.5813 30.4224 75.8525 30.7501 75.8711C31.0777 75.8524 31.3338 75.5813 31.3338 75.2531C31.3338 74.925 31.0777 74.6538 30.7501 74.6351Z" fill="#003849"/>
<path fill-rule="evenodd" clip-rule="evenodd" d="M31.616 77.2361C31.2883 77.2547 31.0322 77.5259 31.0322 77.8541C31.0322 78.1823 31.2883 78.4534 31.616 78.4721C31.9437 78.4534 32.1998 78.1823 32.1998 77.8541C32.1998 77.5259 31.9437 77.2548 31.616 77.2361Z" fill="#003849"/>
<path fill-rule="evenodd" clip-rule="evenodd" d="M15.418 95.4081C15.0903 95.4268 14.8342 95.6979 14.8342 96.0261C14.8342 96.3542 15.0903 96.6254 15.418 96.6441C15.7456 96.6254 16.0017 96.3542 16.0017 96.0261C16.0017 95.6979 15.7456 95.4268 15.418 95.4081Z" fill="#003849"/>
<path fill-rule="evenodd" clip-rule="evenodd" d="M18.015 94.6661C17.6874 94.6848 17.4313 94.956 17.4313 95.2841C17.4313 95.6123 17.6874 95.8835 18.015 95.9021C18.3427 95.8835 18.5988 95.6123 18.5988 95.2841C18.5988 94.956 18.3427 94.6848 18.015 94.6661Z" fill="#003849"/>
<path fill-rule="evenodd" clip-rule="evenodd" d="M6.88696 87.1281C6.55933 87.1467 6.30322 87.4179 6.30322 87.746C6.30322 88.0742 6.55933 88.3454 6.88696 88.364C7.2146 88.3454 7.4707 88.0742 7.4707 87.746C7.4707 87.4179 7.2146 87.1467 6.88696 87.1281Z" fill="#003849"/>
<path fill-rule="evenodd" clip-rule="evenodd" d="M7.3811 84.28C7.05347 84.2987 6.79736 84.5699 6.79736 84.898C6.79736 85.2262 7.05347 85.4973 7.3811 85.516C7.70874 85.4973 7.96484 85.2262 7.96484 84.898C7.96484 84.5699 7.70874 84.2987 7.3811 84.28Z" fill="#003849"/>
<path fill-rule="evenodd" clip-rule="evenodd" d="M36.809 62.6461C36.4813 62.6648 36.2252 62.9359 36.2252 63.2641C36.2252 63.5923 36.4813 63.8635 36.809 63.8821C37.1367 63.8634 37.3928 63.5923 37.3928 63.2641C37.3928 62.9359 37.1367 62.6648 36.809 62.6461Z" fill="#003849"/>
<path fill-rule="evenodd" clip-rule="evenodd" d="M0.481995 133.288C0.0950318 125.802 -0.72998 109.437 1.133 101.974C4.633 89.6271 9.526 97.1591 11.233 105.454C15.747 91.4621 21.12 77.5451 27.943 96.6851C30.343 94.9851 38.754 82.0301 42.858 88.6271C44.358 91.3571 36.849 99.8891 35.233 102.521C40.393 102.97 51.245 103.744 44.019 111.086C40.406 114.757 32.519 115.802 27.99 118.007C33.457 120.907 41.757 125.101 31.846 129.436C25.324 132.679 7.646 132.698 0.486023 133.287" fill="#003849"/>
<path fill-rule="evenodd" clip-rule="evenodd" d="M1.38892 134.179C11.606 123.371 21.6099 112.352 31.1649 100.951C33.8076 97.7984 36.4119 94.6141 38.9779 91.3981C39.4689 90.7821 38.5989 89.8981 38.1029 90.5241C28.8389 102.147 19.0299 113.33 8.96094 124.259C6.16559 127.293 3.35028 130.308 0.514954 133.305C-0.0310669 133.883 0.841919 134.759 1.38995 134.179" fill="#5596A5"/>
<path fill-rule="evenodd" clip-rule="evenodd" d="M20.859 95.659C20.848 100.77 20.121 105.884 20.612 110.991C20.6239 111.327 20.8937 111.597 21.23 111.609C26.517 112.109 31.775 110.884 37.057 110.867C37.3846 110.848 37.6407 110.577 37.6407 110.249C37.6407 109.921 37.3846 109.65 37.057 109.631C31.775 109.648 26.517 110.876 21.23 110.373L21.848 110.991C21.357 105.884 22.084 100.769 22.095 95.659C22.0764 95.3314 21.8052 95.0752 21.477 95.0752C21.1488 95.0752 20.8777 95.3314 20.859 95.659Z" fill="#5596A5"/>
<path fill-rule="evenodd" clip-rule="evenodd" d="M7.00696 110.002C7.00696 115.316 6.68994 120.753 7.77094 125.993C7.84637 126.262 8.09174 126.448 8.37097 126.447C13.8649 126.208 19.39 126.692 24.8569 125.93C25.6409 125.821 25.3079 124.63 24.528 124.738C19.1799 125.483 13.7479 124.976 8.37097 125.21L8.97095 125.664C7.91394 120.54 8.24792 115.199 8.25092 110.002C8.2323 109.674 7.96112 109.418 7.63293 109.418C7.30475 109.418 7.03357 109.674 7.01495 110.002" fill="#5596A5"/>
<path fill-rule="evenodd" clip-rule="evenodd" d="M17.025 104.129C16.5245 104.146 16.1274 104.556 16.1274 105.057C16.1274 105.557 16.5245 105.968 17.0249 105.984C17.5253 105.968 17.9224 105.557 17.9224 105.057C17.9224 104.556 17.5253 104.146 17.025 104.129" fill="#5596A5"/>
<path fill-rule="evenodd" clip-rule="evenodd" d="M17.025 99.4301C16.5245 99.4465 16.1274 99.8569 16.1274 100.358C16.1274 100.858 16.5245 101.269 17.0249 101.285C17.5253 101.269 17.9224 100.858 17.9224 100.358C17.9224 99.8569 17.5253 99.4465 17.025 99.4301" fill="#5596A5"/>
<path fill-rule="evenodd" clip-rule="evenodd" d="M25.433 100.172C24.9326 100.189 24.5355 100.599 24.5355 101.1C24.5355 101.6 24.9326 102.011 25.433 102.027C25.9333 102.011 26.3305 101.6 26.3305 101.1C26.3305 100.599 25.9334 100.189 25.433 100.172" fill="#5596A5"/>
<path fill-rule="evenodd" clip-rule="evenodd" d="M37.798 105.365C37.2976 105.382 36.9005 105.792 36.9005 106.293C36.9005 106.793 37.2976 107.204 37.798 107.22C38.2983 107.204 38.6955 106.793 38.6955 106.293C38.6955 105.792 38.2983 105.382 37.798 105.365" fill="#5596A5"/>
<path fill-rule="evenodd" clip-rule="evenodd" d="M41.507 106.849C41.0066 106.866 40.6095 107.276 40.6095 107.777C40.6095 108.277 41.0066 108.688 41.507 108.704C42.0073 108.688 42.4045 108.277 42.4045 107.777C42.4045 107.276 42.0073 106.866 41.507 106.849" fill="#5596A5"/>
<path fill-rule="evenodd" clip-rule="evenodd" d="M21.4761 118.472C20.9757 118.489 20.5786 118.899 20.5786 119.4C20.5786 119.9 20.9757 120.311 21.4761 120.327C21.9765 120.311 22.3736 119.9 22.3736 119.4C22.3736 118.899 21.9765 118.489 21.4761 118.472" fill="#5596A5"/>
<path fill-rule="evenodd" clip-rule="evenodd" d="M31.615 123.418C31.1146 123.435 30.7175 123.845 30.7175 124.346C30.7175 124.846 31.1146 125.257 31.615 125.273C32.1154 125.257 32.5125 124.846 32.5125 124.346C32.5125 123.845 32.1154 123.435 31.6151 123.418" fill="#5596A5"/>
<path fill-rule="evenodd" clip-rule="evenodd" d="M6.88599 101.903C6.38562 101.92 5.98853 102.33 5.98853 102.831C5.98853 103.331 6.38562 103.742 6.88599 103.758C7.38635 103.742 7.78351 103.331 7.78351 102.831C7.78351 102.33 7.38635 101.92 6.88599 101.903" fill="#5596A5"/>
<path fill-rule="evenodd" clip-rule="evenodd" d="M3.91895 119.708C3.41858 119.725 3.02148 120.135 3.02148 120.636C3.02148 121.136 3.41858 121.547 3.91895 121.563C4.41937 121.547 4.81647 121.136 4.81647 120.636C4.81647 120.135 4.41937 119.725 3.91895 119.708" fill="#5596A5"/>
<path fill-rule="evenodd" clip-rule="evenodd" d="M358.569 133.166C340.517 114.866 317.769 112.641 293.779 111.157C296.499 116.597 308.122 122.532 313.81 125.5C319.383 128.273 325.172 130.589 331.12 132.424C340.02 134.65 349.42 132.919 358.32 133.166" fill="#FFD066"/>
<path fill-rule="evenodd" clip-rule="evenodd" d="M357.926 132.808C350.485 130.052 343.061 127.236 335.519 124.764C328.259 122.385 320.85 120.589 313.513 118.479C309.425 117.352 305.417 115.955 301.513 114.299C301.08 114.11 300.701 114.749 301.139 114.939C308.015 117.946 315.317 119.766 322.545 121.701C330.187 123.748 337.692 126.187 345.132 128.873C349.343 130.394 353.532 131.968 357.732 133.523C358.18 133.689 358.373 132.972 357.932 132.807" fill="#003849"/>
<path fill-rule="evenodd" clip-rule="evenodd" d="M338.895 122.547C341.133 124.767 344.063 126.406 345.885 129.026L345.943 128.576C344.613 129.732 342.634 129.858 341.037 130.459C340.595 130.626 340.786 131.343 341.237 131.175C342.978 130.52 345.017 130.364 346.471 129.101C346.589 128.981 346.613 128.797 346.529 128.651C344.663 125.968 341.713 124.295 339.423 122.023C339.278 121.878 339.043 121.878 338.898 122.023C338.753 122.168 338.753 122.403 338.898 122.548" fill="#003849"/>
<path fill-rule="evenodd" clip-rule="evenodd" d="M329.44 118.887C330.975 121.039 332.989 122.815 334.386 125.069L334.608 124.523C331.497 125.288 328.237 125.387 325.208 126.501C324.764 126.665 324.956 127.382 325.408 127.217C328.434 126.102 331.694 126.003 334.808 125.239C334.918 125.207 335.008 125.127 335.052 125.02C335.095 124.914 335.087 124.793 335.03 124.693C333.63 122.437 331.619 120.664 330.084 118.511C329.809 118.126 329.165 118.496 329.443 118.886" fill="#003849"/>
<path fill-rule="evenodd" clip-rule="evenodd" d="M319.919 116.785C320.768 118.331 321.937 119.864 322.231 121.642L322.49 121.186C320.673 121.813 318.814 122.309 316.926 122.67C316.459 122.764 316.656 123.48 317.126 123.386C319.013 123.024 320.873 122.528 322.69 121.902C322.882 121.842 322.995 121.643 322.949 121.446C322.649 119.605 321.441 118.012 320.563 116.411C320.333 115.993 319.692 116.366 319.922 116.786" fill="#003849"/>
<path fill-rule="evenodd" clip-rule="evenodd" d="M310.484 115.46C310.909 116.513 311.28 117.586 311.597 118.675L311.768 118.256C310.752 118.686 309.707 119.046 308.641 119.331C308.19 119.48 308.383 120.197 308.841 120.047C309.966 119.74 311.069 119.356 312.141 118.897C312.284 118.811 312.354 118.641 312.311 118.479C311.995 117.389 311.623 116.316 311.198 115.264C311.047 114.813 310.329 115.007 310.483 115.464" fill="#003849"/>
<path fill-rule="evenodd" clip-rule="evenodd" d="M326.051 118.7C326.379 118.719 326.635 118.99 326.635 119.318C326.635 119.646 326.379 119.917 326.051 119.936C325.723 119.917 325.467 119.646 325.467 119.318C325.467 118.99 325.723 118.719 326.051 118.7Z" fill="#003849"/>
<path fill-rule="evenodd" clip-rule="evenodd" d="M324.443 116.969C324.771 116.988 325.027 117.259 325.027 117.587C325.027 117.915 324.771 118.186 324.443 118.205C324.115 118.186 323.859 117.915 323.859 117.587C323.859 117.259 324.115 116.988 324.443 116.969Z" fill="#003849"/>
<path fill-rule="evenodd" clip-rule="evenodd" d="M314.428 120.431C314.756 120.45 315.012 120.721 315.012 121.049C315.012 121.377 314.756 121.648 314.428 121.667C314.1 121.648 313.844 121.377 313.844 121.049C313.844 120.721 314.1 120.45 314.428 120.431Z" fill="#003849"/>
<path fill-rule="evenodd" clip-rule="evenodd" d="M312.697 121.42C313.025 121.439 313.281 121.71 313.281 122.038C313.281 122.366 313.025 122.637 312.697 122.656C312.369 122.637 312.113 122.366 312.113 122.038C312.113 121.71 312.369 121.439 312.697 121.42Z" fill="#003849"/>
<path fill-rule="evenodd" clip-rule="evenodd" d="M298.849 113.136C299.177 113.155 299.433 113.426 299.433 113.754C299.433 114.082 299.177 114.353 298.849 114.372C298.521 114.353 298.265 114.082 298.265 113.754C298.265 113.426 298.521 113.155 298.849 113.136Z" fill="#003849"/>
<path fill-rule="evenodd" clip-rule="evenodd" d="M373.551 113.216C374.293 99.6161 373.551 86.2611 365.143 74.8861C357.971 65.4861 345.607 57.8231 334.479 54.3611C334.726 66.7261 340.661 82.5521 348.579 91.9491C352.541 96.5699 357.022 100.719 361.933 104.314C365.395 107.034 369.105 111.485 373.556 112.475" fill="#5596A5"/>
<path fill-rule="evenodd" clip-rule="evenodd" d="M372.92 110.893C369.691 103.401 365.779 96.222 361.236 89.4461C359.074 86.1531 356.777 82.9601 354.536 79.7251C352.381 76.6201 350.376 73.4131 348.236 70.2951C345.998 66.8395 343.379 63.6465 340.428 60.7762C340.078 60.4531 339.552 60.9761 339.903 61.3001C345.346 66.3221 349.033 72.9561 353.154 79.0261C355.3 82.1861 357.56 85.2651 359.681 88.4421C361.902 91.7701 364.038 95.1561 366.021 98.6311C368.331 102.656 370.395 106.816 372.203 111.089C372.385 111.523 373.103 111.333 372.918 110.889" fill="#003849"/>
<path fill-rule="evenodd" clip-rule="evenodd" d="M369.348 93.8051C369.207 96.756 368.881 99.6952 368.372 102.605L368.73 102.332C367.176 102.384 365.626 102.142 364.162 101.619C362.658 101.155 361.19 100.584 359.768 99.9101C359.339 99.7101 358.961 100.347 359.394 100.55C360.873 101.254 362.4 101.85 363.964 102.334C365.492 102.877 367.109 103.128 368.73 103.074C368.896 103.071 369.041 102.961 369.088 102.801C369.61 99.825 369.944 96.8191 370.088 93.8011C370.11 93.3241 369.368 93.3251 369.346 93.8011" fill="#003849"/>
<path fill-rule="evenodd" clip-rule="evenodd" d="M362.794 81.5631C362.557 85.1781 363.449 88.9251 362.436 92.4691L362.794 92.1961C360.956 92.199 359.129 91.9221 357.375 91.3751C355.57 90.9143 353.837 90.2077 352.224 89.2751C351.816 89.0261 351.442 89.6671 351.85 89.9151C353.519 90.8784 355.311 91.6089 357.178 92.0861C358.996 92.6513 360.89 92.9372 362.794 92.9341C362.96 92.9305 363.105 92.8202 363.152 92.6611C364.185 89.0451 363.293 85.2441 363.536 81.5611C363.567 81.0841 362.825 81.0861 362.794 81.5611" fill="#003849"/>
<path fill-rule="evenodd" clip-rule="evenodd" d="M356.365 73.898C356.365 75.063 356.457 76.229 356.479 77.398C356.577 78.8405 356.502 80.2894 356.255 81.714C356.18 82.045 356.121 82.381 355.806 82.49C355.33 82.6013 354.837 82.6199 354.354 82.545C352.854 82.4017 351.367 82.1467 349.905 81.782C348.623 81.493 347.353 81.158 346.078 80.838C345.884 80.792 345.688 80.9076 345.634 81.0999C345.58 81.2923 345.688 81.4927 345.878 81.554C348.602 82.3507 351.386 82.9263 354.202 83.275C355.086 83.35 356.348 83.475 356.777 82.509C357.198 81.177 357.352 79.7747 357.228 78.383C357.228 76.883 357.111 75.395 357.104 73.901C357.104 73.6961 356.938 73.53 356.733 73.53C356.528 73.53 356.362 73.6961 356.362 73.901" fill="#003849"/>
<path fill-rule="evenodd" clip-rule="evenodd" d="M349.564 65.366C349.571 66.424 349.708 67.482 349.756 68.539C349.924 69.7025 349.839 70.8885 349.507 72.0161C349.186 72.742 347.913 72.381 347.325 72.262C346.012 71.9733 344.722 71.5869 343.467 71.106C342.332 70.693 341.205 70.248 340.107 69.744C339.676 69.5441 339.299 70.185 339.733 70.384C342.077 71.5171 344.54 72.3835 347.077 72.967C347.877 73.134 349.258 73.467 349.908 72.759C350.635 71.971 350.538 70.446 350.526 69.459C350.51 68.09 350.316 66.728 350.307 65.359C350.307 65.1541 350.141 64.988 349.936 64.988C349.731 64.988 349.565 65.1541 349.565 65.359" fill="#003849"/>
<path fill-rule="evenodd" clip-rule="evenodd" d="M355.622 69.3231C355.95 69.3418 356.206 69.6129 356.206 69.9411C356.206 70.2693 355.95 70.5405 355.622 70.5591C355.294 70.5404 355.038 70.2693 355.038 69.9411C355.038 69.6129 355.294 69.3418 355.622 69.3231Z" fill="#003849"/>
<path fill-rule="evenodd" clip-rule="evenodd" d="M353.891 67.4641C354.219 67.4828 354.475 67.7539 354.475 68.0821C354.475 68.4103 354.219 68.6815 353.891 68.7001C353.563 68.6814 353.307 68.4103 353.307 68.0821C353.307 67.7539 353.563 67.4828 353.891 67.4641Z" fill="#003849"/>
<path fill-rule="evenodd" clip-rule="evenodd" d="M353.397 70.0641C353.725 70.0827 353.981 70.3539 353.981 70.6821C353.981 71.0103 353.725 71.2814 353.397 71.3001C353.069 71.2814 352.813 71.0103 352.813 70.6821C352.813 70.3539 353.069 70.0828 353.397 70.0641Z" fill="#003849"/>
<path fill-rule="evenodd" clip-rule="evenodd" d="M345.731 76.9891C346.059 77.0078 346.315 77.2789 346.315 77.6071C346.315 77.9353 346.059 78.2065 345.731 78.2251C345.403 78.2064 345.147 77.9353 345.147 77.6071C345.147 77.279 345.403 77.0078 345.731 76.9891Z" fill="#003849"/>
<path fill-rule="evenodd" clip-rule="evenodd" d="M344 74.6351C344.328 74.6538 344.584 74.9249 344.584 75.2531C344.584 75.5813 344.328 75.8525 344 75.8711C343.672 75.8524 343.416 75.5813 343.416 75.2531C343.416 74.925 343.672 74.6538 344 74.6351Z" fill="#003849"/>
<path fill-rule="evenodd" clip-rule="evenodd" d="M343.134 77.2361C343.462 77.2547 343.718 77.5259 343.718 77.8541C343.718 78.1823 343.462 78.4534 343.134 78.4721C342.806 78.4534 342.55 78.1823 342.55 77.8541C342.55 77.5259 342.806 77.2548 343.134 77.2361Z" fill="#003849"/>
<path fill-rule="evenodd" clip-rule="evenodd" d="M359.332 95.4081C359.66 95.4268 359.916 95.6979 359.916 96.0261C359.916 96.3542 359.66 96.6254 359.332 96.6441C359.004 96.6254 358.748 96.3542 358.748 96.0261C358.748 95.6979 359.004 95.4268 359.332 95.4081Z" fill="#003849"/>
<path fill-rule="evenodd" clip-rule="evenodd" d="M356.735 94.6661C357.063 94.6848 357.319 94.956 357.319 95.2841C357.319 95.6123 357.063 95.8835 356.735 95.9021C356.407 95.8835 356.151 95.6123 356.151 95.2841C356.151 94.956 356.407 94.6848 356.735 94.6661Z" fill="#003849"/>
<path fill-rule="evenodd" clip-rule="evenodd" d="M367.863 87.1281C368.191 87.1467 368.447 87.4179 368.447 87.746C368.447 88.0742 368.191 88.3454 367.863 88.364C367.535 88.3454 367.279 88.0742 367.279 87.746C367.279 87.4179 367.535 87.1467 367.863 87.1281Z" fill="#003849"/>
<path fill-rule="evenodd" clip-rule="evenodd" d="M367.369 84.28C367.697 84.2987 367.953 84.5699 367.953 84.898C367.953 85.2262 367.697 85.4973 367.369 85.516C367.041 85.4973 366.785 85.2262 366.785 84.898C366.785 84.5699 367.041 84.2987 367.369 84.28Z" fill="#003849"/>
<path fill-rule="evenodd" clip-rule="evenodd" d="M337.941 62.6461C338.269 62.6648 338.525 62.9359 338.525 63.2641C338.525 63.5923 338.269 63.8635 337.941 63.8821C337.613 63.8634 337.357 63.5923 337.357 63.2641C337.357 62.9359 337.613 62.6648 337.941 62.6461Z" fill="#003849"/>
<path fill-rule="evenodd" clip-rule="evenodd" d="M374.268 133.288C374.656 125.802 375.481 109.437 373.617 101.974C370.117 89.6271 365.224 97.1591 363.517 105.454C359.004 91.4621 353.629 77.5451 346.807 96.6851C344.407 94.9851 335.996 82.0301 331.891 88.6271C330.397 91.3571 337.9 99.8891 339.517 102.521C334.356 102.97 323.505 103.744 330.731 111.086C334.344 114.757 342.231 115.802 346.761 118.007C341.295 120.907 332.994 125.101 342.905 129.436C349.427 132.679 367.105 132.698 374.265 133.287" fill="#003849"/>
<path fill-rule="evenodd" clip-rule="evenodd" d="M374.236 133.305C364.019 122.496 354.015 111.477 344.46 100.076C341.817 96.9235 339.213 93.7391 336.648 90.5231C336.148 89.9011 335.282 90.7811 335.773 91.3971C345.038 103.02 354.847 114.202 364.915 125.132C367.711 128.166 370.526 131.181 373.361 134.178C373.909 134.757 374.782 133.878 374.236 133.304" fill="#5596A5"/>
<path fill-rule="evenodd" clip-rule="evenodd" d="M352.655 95.6591C352.666 100.77 353.393 105.884 352.902 110.991L353.52 110.373C348.233 110.873 342.975 109.648 337.693 109.631C337.365 109.65 337.109 109.921 337.109 110.249C337.109 110.577 337.365 110.848 337.693 110.867C342.975 110.884 348.233 112.112 353.52 111.609C353.857 111.598 354.127 111.328 354.138 110.991C354.629 105.884 353.902 100.769 353.891 95.6591C353.872 95.3314 353.601 95.0751 353.273 95.0751C352.945 95.0751 352.673 95.3314 352.655 95.6591Z" fill="#5596A5"/>
<path fill-rule="evenodd" clip-rule="evenodd" d="M366.503 110.002C366.503 115.202 366.84 120.541 365.783 125.664L366.383 125.21C361.006 124.976 355.575 125.483 350.227 124.738C349.448 124.629 349.112 125.821 349.898 125.93C355.365 126.692 360.89 126.208 366.383 126.447C366.662 126.448 366.908 126.262 366.983 125.993C368.064 120.753 367.75 115.316 367.747 110.002C367.728 109.674 367.457 109.418 367.129 109.418C366.801 109.418 366.529 109.674 366.511 110.002" fill="#5596A5"/>
<path fill-rule="evenodd" clip-rule="evenodd" d="M357.725 104.129C358.225 104.146 358.622 104.556 358.622 105.057C358.622 105.557 358.225 105.968 357.725 105.984C357.225 105.968 356.828 105.557 356.828 105.057C356.828 104.556 357.225 104.146 357.725 104.129" fill="#5596A5"/>
<path fill-rule="evenodd" clip-rule="evenodd" d="M357.725 99.4301C358.225 99.4465 358.622 99.8569 358.622 100.358C358.622 100.858 358.225 101.269 357.725 101.285C357.225 101.269 356.828 100.858 356.828 100.358C356.828 99.8569 357.225 99.4465 357.725 99.4301" fill="#5596A5"/>
<path fill-rule="evenodd" clip-rule="evenodd" d="M349.317 100.172C349.817 100.189 350.214 100.599 350.214 101.1C350.214 101.6 349.817 102.011 349.317 102.027C348.817 102.011 348.42 101.6 348.42 101.1C348.42 100.599 348.817 100.189 349.317 100.172" fill="#5596A5"/>
<path fill-rule="evenodd" clip-rule="evenodd" d="M336.952 105.365C337.452 105.382 337.849 105.792 337.849 106.293C337.849 106.793 337.452 107.204 336.952 107.22C336.452 107.204 336.055 106.793 336.055 106.293C336.055 105.792 336.452 105.382 336.952 105.365" fill="#5596A5"/>
<path fill-rule="evenodd" clip-rule="evenodd" d="M333.243 106.849C333.743 106.866 334.141 107.276 334.141 107.777C334.141 108.277 333.743 108.688 333.243 108.704C332.743 108.688 332.346 108.277 332.346 107.777C332.346 107.276 332.743 106.866 333.243 106.849" fill="#5596A5"/>
<path fill-rule="evenodd" clip-rule="evenodd" d="M353.274 118.472C353.774 118.489 354.172 118.899 354.172 119.4C354.172 119.9 353.774 120.311 353.274 120.327C352.774 120.311 352.377 119.9 352.377 119.4C352.377 118.899 352.774 118.489 353.274 118.472" fill="#5596A5"/>
<path fill-rule="evenodd" clip-rule="evenodd" d="M343.135 123.418C343.635 123.435 344.032 123.845 344.032 124.346C344.032 124.846 343.635 125.257 343.135 125.273C342.635 125.257 342.238 124.846 342.238 124.346C342.238 123.845 342.635 123.435 343.135 123.418" fill="#5596A5"/>
<path fill-rule="evenodd" clip-rule="evenodd" d="M367.864 101.903C368.364 101.92 368.761 102.33 368.761 102.831C368.761 103.331 368.364 103.742 367.864 103.758C367.364 103.742 366.967 103.331 366.967 102.831C366.967 102.33 367.364 101.92 367.864 101.903" fill="#5596A5"/>
<path fill-rule="evenodd" clip-rule="evenodd" d="M370.831 119.708C371.331 119.725 371.729 120.135 371.729 120.636C371.729 121.136 371.331 121.547 370.831 121.563C370.331 121.547 369.934 121.136 369.934 120.636C369.934 120.135 370.331 119.725 370.831 119.708" fill="#5596A5"/>
<path fill-rule="evenodd" clip-rule="evenodd" d="M160.702 134.237C160.331 128.797 159.466 123.851 161.197 118.537C161.692 117.177 162.928 112.478 165.03 113.468C166.514 114.086 166.266 118.043 166.761 119.279C168.987 116.806 168.987 112.479 171.707 110.253C175.416 107.038 174.18 112.853 174.307 114.953C176.78 113.84 180.613 106.298 183.951 107.411C187.042 108.524 179.376 115.695 178.511 117.179C179.995 117.426 181.602 116.437 183.211 116.561C185.56 116.685 186.426 118.168 184.2 119.652C181.851 121.012 175.792 120.888 174.8 123.852C176.284 124.594 182.837 122.986 182.466 126.201C182.095 128.55 176.16 128.921 174.429 129.416C169.607 130.652 165.529 132.631 161.075 134.609" fill="#4094A8"/>
<path fill-rule="evenodd" clip-rule="evenodd" d="M161.216 134.269C165.759 127.345 172.003 121.846 177.525 115.746C179.044 114.068 180.503 112.337 181.865 110.529C182.104 110.211 181.565 109.902 181.331 110.217C176.372 116.803 170.057 122.186 164.773 128.491C163.304 130.232 161.938 132.057 160.682 133.957C160.463 134.291 160.999 134.601 161.216 134.269" fill="#003849"/>
<path fill-rule="evenodd" clip-rule="evenodd" d="M170.914 114.123C170.218 116.939 169.923 119.839 170.038 122.737C170.04 122.833 170.085 122.923 170.161 122.982C170.238 123.04 170.337 123.061 170.43 123.037C174.243 122.229 177.769 120.477 181.43 119.204C181.803 119.074 181.642 118.477 181.265 118.604C177.6 119.877 174.073 121.629 170.265 122.437L170.656 122.737C170.541 119.895 170.829 117.05 171.511 114.288C171.588 113.9 170.992 113.733 170.911 114.124" fill="#003849"/>
<path fill-rule="evenodd" clip-rule="evenodd" d="M163.855 119.276C164.201 122.562 164.366 125.864 164.35 129.168C164.35 129.265 164.396 129.356 164.472 129.414C164.549 129.473 164.649 129.493 164.742 129.468C168.484 128.364 172.281 127.456 176.117 126.748C176.507 126.674 176.342 126.078 175.952 126.148C172.116 126.857 168.319 127.765 164.577 128.868L164.968 129.168C164.984 125.864 164.819 122.561 164.473 119.276C164.443 118.882 163.825 118.876 163.855 119.276Z" fill="#003849"/>
<path fill-rule="evenodd" clip-rule="evenodd" d="M140.731 98.2301C155.419 104.689 164.383 122.769 161.498 135.695C143.712 130.73 141.03 113.588 140.731 98.2301Z" fill="#003849"/>
<path fill-rule="evenodd" clip-rule="evenodd" d="M144.238 103.482C148.738 111.631 152.378 120.207 156.638 128.475C157.838 130.81 159.099 133.119 160.432 135.383C160.518 135.531 160.708 135.58 160.855 135.494C161.002 135.408 161.052 135.219 160.966 135.071C156.25 127.063 152.56 118.52 148.435 110.206C147.259 107.836 146.046 105.486 144.768 103.17C144.576 102.822 144.041 103.133 144.234 103.482" fill="#4094A8"/>
<path fill-rule="evenodd" clip-rule="evenodd" d="M144.299 110.918C145.978 111.569 147.607 112.344 149.171 113.236C149.254 113.283 149.355 113.29 149.443 113.254C149.532 113.218 149.599 113.143 149.626 113.051C150.026 111.113 149.757 109.113 150.007 107.158C150.058 106.765 149.439 106.768 149.389 107.158C149.146 109.058 149.42 111.007 149.029 112.887L149.483 112.702C147.871 111.786 146.193 110.99 144.464 110.322C144.089 110.186 143.927 110.784 144.299 110.922" fill="#4094A8"/>
<path fill-rule="evenodd" clip-rule="evenodd" d="M145.659 117.224C148.012 118.091 150.359 118.966 152.633 120.037C152.716 120.084 152.817 120.091 152.905 120.055C152.994 120.019 153.061 119.944 153.088 119.852C153.466 117.615 153.717 115.358 153.84 113.093C153.864 112.693 153.246 112.693 153.222 113.093C153.103 115.304 152.859 117.505 152.491 119.688L152.945 119.503C150.627 118.41 148.227 117.514 145.824 116.628C145.45 116.491 145.289 117.087 145.659 117.228" fill="#4094A8"/>
<path fill-rule="evenodd" clip-rule="evenodd" d="M149.121 124.766C151.48 125.756 153.893 126.603 156.292 127.486C156.456 127.528 156.624 127.432 156.673 127.27C157.392 125.333 157.853 123.31 158.043 121.253C158.096 120.86 157.477 120.864 157.425 121.253C157.235 123.255 156.781 125.223 156.076 127.106L156.457 126.89C154.057 126.007 151.644 125.159 149.286 124.17C148.92 124.016 148.76 124.614 149.121 124.77" fill="#4094A8"/>
<path fill-rule="evenodd" clip-rule="evenodd" d="M228.898 118.548C224.15 109.671 209.398 110.522 205.838 119.862C205.317 121.239 205.114 122.716 205.245 124.183C204.969 126.204 205.304 128.261 206.207 130.09C207.898 133.567 212.007 135.296 215.635 135.657C224.655 136.557 233.649 127.431 228.898 118.549" fill="#FFD066"/>
<path fill-rule="evenodd" clip-rule="evenodd" d="M216.766 125.395C217.613 125.428 218.842 125.305 219.072 124.295C219.135 123.456 218.763 122.644 218.086 122.145C217.372 121.457 216.39 121.121 215.404 121.228C214.225 121.54 213.314 122.476 213.032 123.662C212.497 124.936 212.673 126.397 213.495 127.507C214.361 128.428 215.55 128.978 216.813 129.042C219.848 129.355 222.963 127.753 223.556 124.561C224.295 120.578 220.718 117.261 217.146 116.415C213.882 115.645 210.468 116.704 208.999 119.894C207.489 123.173 208.269 127.433 210.041 130.462C210.928 132.076 212.443 133.25 214.227 133.705C216.25 134.094 218.336 134.004 220.318 133.443C222.263 133.004 224.033 131.995 225.401 130.543C226.432 129.329 227.099 127.85 227.327 126.274C227.827 123.154 227.005 119.49 224.502 117.386C223.908 116.889 223.234 116.497 222.509 116.225C222.137 116.083 221.976 116.681 222.344 116.825C227.999 118.979 228.274 128.058 223.613 131.325C222.054 132.354 220.271 132.992 218.413 133.186C216.616 133.535 214.756 133.343 213.068 132.635C211.653 131.819 210.566 130.535 209.994 129.004C209.289 127.398 208.894 125.673 208.83 123.92C208.772 121.102 209.993 118.093 212.84 117.113C216.174 116.147 219.757 117.353 221.828 120.138C222.891 121.501 223.261 123.281 222.828 124.954C222.422 126.328 221.414 127.444 220.087 127.985C218.187 128.759 215.037 128.807 213.777 126.858C212.719 125.221 213.754 121.499 216.118 121.838C216.909 121.978 217.616 122.416 218.094 123.061C218.419 123.495 218.738 124.208 218.153 124.568C217.72 124.768 217.24 124.842 216.767 124.78C216.367 124.764 216.367 125.38 216.767 125.398" fill="#003849"/>
<path fill-rule="evenodd" clip-rule="evenodd" d="M217.699 102.434V110.306C217.699 110.477 217.923 110.615 218.199 110.615C218.475 110.615 218.699 110.477 218.699 110.306V102.434C218.699 102.263 218.475 102.125 218.199 102.125C217.923 102.125 217.699 102.263 217.699 102.434Z" fill="#003849"/>
<path fill-rule="evenodd" clip-rule="evenodd" d="M208.262 109.423L210.192 111.357C210.313 111.478 210.509 111.478 210.63 111.357C210.75 111.236 210.75 111.04 210.629 110.919L208.696 108.985C208.575 108.864 208.379 108.865 208.259 108.986C208.138 109.107 208.138 109.302 208.259 109.423" fill="#003849"/>
<path fill-rule="evenodd" clip-rule="evenodd" d="M228.286 109.399L225.938 111.747C225.83 111.87 225.836 112.055 225.951 112.171C226.067 112.287 226.252 112.293 226.375 112.185L228.723 109.837C228.831 109.714 228.825 109.529 228.71 109.413C228.594 109.297 228.409 109.291 228.286 109.399Z" fill="#003849"/>
<path fill-rule="evenodd" clip-rule="evenodd" d="M198.179 118.754C199.845 119.31 201.554 119.725 203.289 119.997C203.678 120.057 203.846 119.462 203.454 119.397C201.719 119.126 200.01 118.71 198.344 118.154C197.965 118.028 197.803 118.625 198.179 118.754Z" fill="#003849"/>
<path fill-rule="evenodd" clip-rule="evenodd" d="M233.145 120.412C234.845 120.133 236.555 119.981 238.255 119.722C238.647 119.662 238.48 119.067 238.09 119.122C236.39 119.382 234.677 119.533 232.98 119.812C232.589 119.877 232.755 120.472 233.145 120.412Z" fill="#003849"/>
<path fill-rule="evenodd" clip-rule="evenodd" d="M233.338 128.08C234.078 128.08 234.809 128.258 235.548 128.262C235.718 128.261 235.856 128.079 235.856 127.853C235.856 127.628 235.718 127.445 235.548 127.445C234.809 127.445 234.078 127.265 233.338 127.262C233.227 127.262 233.125 127.339 233.069 127.466C233.014 127.593 233.014 127.749 233.069 127.876C233.125 128.002 233.227 128.08 233.338 128.08" fill="#003849"/>
<path fill-rule="evenodd" clip-rule="evenodd" d="M200.608 128.398C201.558 128.421 202.509 128.355 203.452 128.202C203.616 128.141 203.713 127.917 203.668 127.7C203.619 127.487 203.452 127.361 203.288 127.415C202.399 127.553 201.503 127.609 200.608 127.583C200.437 127.583 200.299 127.765 200.299 127.99C200.299 128.216 200.437 128.398 200.608 128.398" fill="#003849"/>
<path fill-rule="evenodd" clip-rule="evenodd" d="M54.0769 27.5941C53.358 24.3561 50.7529 17.4901 46.6189 17.6121C41.772 17.7581 43.1709 26.8621 43.4059 29.7361C43.535 31.3141 46.0059 31.3271 45.879 29.7361C45.847 29.3361 45.7179 28.0531 45.6409 26.5461C45.9299 26.7404 46.2967 26.7779 46.6189 26.6461C47.9769 26.1621 49.384 25.9081 50.7099 25.3461C51.1308 26.2827 51.46 27.258 51.6929 28.2581C52.0389 29.8141 54.423 29.1581 54.0769 27.6001M45.962 24.2581C45.8244 24.3079 45.6963 24.3806 45.5829 24.4731C45.5829 22.1271 45.8389 19.9331 46.8489 20.0731C48.0379 20.2381 48.993 21.9131 49.626 23.1331C48.457 23.6471 47.1629 23.8331 45.962 24.2571" fill="#D67676"/>
<path fill-rule="evenodd" clip-rule="evenodd" d="M121.5 88.657C120.113 89.67 118.567 89.682 117.629 88.103C116.629 86.414 117.855 84.976 119.486 84.487C120.118 84.2842 120.477 83.6193 120.301 82.9795C120.125 82.3398 119.475 81.9527 118.829 82.1021C115.773 83.017 113.865 85.902 115.315 88.992C115.931 90.353 117.141 91.3541 118.593 91.7057C120.045 92.0573 121.578 91.7203 122.749 90.7921C124.024 89.863 122.792 87.715 121.501 88.657" fill="#4094A8"/>
<path fill-rule="evenodd" clip-rule="evenodd" d="M71.7929 67.769C71.3395 67.7847 70.98 68.1568 70.98 68.6105C70.98 69.0643 71.3395 69.4364 71.7929 69.452C72.2464 69.4364 72.6059 69.0643 72.6059 68.6105C72.6059 68.1568 72.2464 67.7847 71.7929 67.769Z" fill="#4094A8"/>
<path fill-rule="evenodd" clip-rule="evenodd" d="M73.304 65.2451C72.8505 65.2608 72.491 65.6329 72.491 66.0866C72.491 66.5403 72.8505 66.9125 73.304 66.9281C73.7574 66.9125 74.1169 66.5403 74.1169 66.0866C74.1169 65.6329 73.7574 65.2608 73.304 65.2451Z" fill="#4094A8"/>
<path fill-rule="evenodd" clip-rule="evenodd" d="M74.4821 68.1051C74.0286 68.1208 73.6691 68.4929 73.6691 68.9466C73.6691 69.4003 74.0286 69.7725 74.4821 69.7881C74.9355 69.7725 75.295 69.4003 75.295 68.9466C75.295 68.4929 74.9355 68.1208 74.4821 68.1051Z" fill="#4094A8"/>
<path fill-rule="evenodd" clip-rule="evenodd" d="M313.907 99.2701C313.454 99.2858 313.094 99.6579 313.094 100.112C313.094 100.565 313.454 100.937 313.907 100.953C314.36 100.937 314.72 100.565 314.72 100.112C314.72 99.658 314.36 99.2859 313.907 99.2701Z" fill="#4094A8"/>
<path fill-rule="evenodd" clip-rule="evenodd" d="M315.425 96.7421C314.972 96.7577 314.612 97.1299 314.612 97.5836C314.612 98.0373 314.972 98.4094 315.425 98.4251C315.879 98.4094 316.238 98.0373 316.238 97.5836C316.238 97.1299 315.879 96.7577 315.425 96.7421" fill="#4094A8"/>
<path fill-rule="evenodd" clip-rule="evenodd" d="M316.6 99.6021C316.147 99.6177 315.787 99.9898 315.787 100.444C315.787 100.897 316.147 101.269 316.6 101.285C317.053 101.269 317.413 100.897 317.413 100.444C317.413 99.9898 317.053 99.6177 316.6 99.6021" fill="#4094A8"/>
<g opacity="0.3">
<mask id="mask2_1_2766" style="mask-type:luminance" maskUnits="userSpaceOnUse" x="172" y="57" width="49" height="26">
<rect x="172.572" y="57.1261" width="48.029" height="25.043" fill="white"/>
</mask>
<g mask="url(#mask2_1_2766)">
<path fill-rule="evenodd" clip-rule="evenodd" d="M206.172 81.7121C197.669 82.3533 189.129 82.3218 180.631 81.6181C170.563 80.7771 169.412 69.3311 180.107 72.8711C174.941 60.3501 185.133 53.7991 192.651 66.3611C193.561 52.2611 211.322 55.2491 207.058 68.9561C212.485 66.0231 222.2 67.8671 220.373 76.5741C219.273 82.2691 210.873 81.7911 206.173 81.7121" fill="#90CCD6"/>
</g>
</g>
</g>
</g>
</svg>
